<?xml version="1.0" encoding="UTF-8"?>
<!--
Font Awesome Pro 5.10.2 by @fontawesome - https://fontawesome.com
License - https://fontawesome.com/license (Commercial License)
-->
<svg xmlns="http://www.w3.org/2000/svg" style="display: none;">
  <symbol id="chevron-left" viewBox="0 0 256 512">
    <path d="M231.293 473.899l19.799-19.799c4.686-4.686 4.686-12.284 0-16.971L70.393 256 251.092 74.87c4.686-4.686 4.686-12.284 0-16.971L231.293 38.1c-4.686-4.686-12.284-4.686-16.971 0L4.908 247.515c-4.686 4.686-4.686 12.284 0 16.971L214.322 473.9c4.687 4.686 12.285 4.686 16.971-.001z"></path>
  </symbol>
  <symbol id="chevron-right" viewBox="0 0 256 512">
    <path d="M24.707 38.101L4.908 57.899c-4.686 4.686-4.686 12.284 0 16.971L185.607 256 4.908 437.13c-4.686 4.686-4.686 12.284 0 16.971L24.707 473.9c4.686 4.686 12.284 4.686 16.971 0l209.414-209.414c4.686-4.686 4.686-12.284 0-16.971L41.678 38.101c-4.687-4.687-12.285-4.687-16.971 0z"></path>
  </symbol>
  <symbol id="chevron-double-left-solid" viewBox="0 0 512 512">
    <path d="M34.5 239L228.9 44.7c9.4-9.4 24.6-9.4 33.9 0l22.7 22.7c9.4 9.4 9.4 24.5 0 33.9L131.5 256l154 154.7c9.3 9.4 9.3 24.5 0 33.9l-22.7 22.7c-9.4 9.4-24.6 9.4-33.9 0L34.5 273c-9.3-9.4-9.3-24.6 0-34zm192 34l194.3 194.3c9.4 9.4 24.6 9.4 33.9 0l22.7-22.7c9.4-9.4 9.4-24.5 0-33.9L323.5 256l154-154.7c9.3-9.4 9.3-24.5 0-33.9l-22.7-22.7c-9.4-9.4-24.6-9.4-33.9 0L226.5 239c-9.3 9.4-9.3 24.6 0 34z"></path>
  </symbol>
  <symbol id="chevron-double-right-solid" viewBox="0 0 512 512">
    <path d="M477.5 273L283.1 467.3c-9.4 9.4-24.6 9.4-33.9 0l-22.7-22.7c-9.4-9.4-9.4-24.5 0-33.9l154-154.7-154-154.7c-9.3-9.4-9.3-24.5 0-33.9l22.7-22.7c9.4-9.4 24.6-9.4 33.9 0L477.5 239c9.3 9.4 9.3 24.6 0 34zm-192-34L91.1 44.7c-9.4-9.4-24.6-9.4-33.9 0L34.5 67.4c-9.4 9.4-9.4 24.5 0 33.9l154 154.7-154 154.7c-9.3 9.4-9.3 24.5 0 33.9l22.7 22.7c9.4 9.4 24.6 9.4 33.9 0L285.5 273c9.3-9.4 9.3-24.6 0-34z"></path>
  </symbol>
  <symbol id="long-arrow-up" viewBox="0 0 320 512">
    <path d="M19.716 184.485l19.626 19.626c4.753 4.753 12.484 4.675 17.14-.173L134 123.22V468c0 6.627 5.373 12 12 12h28c6.627 0 12-5.373 12-12V123.22l77.518 80.717c4.656 4.849 12.387 4.927 17.14.173l19.626-19.626c4.686-4.686 4.686-12.284 0-16.971L168.485 35.716c-4.686-4.686-12.284-4.686-16.971 0L19.716 167.515c-4.686 4.686-4.686 12.284 0 16.97z"></path>
  </symbol>
  <symbol id="long-arrow-left" viewBox="0 0 448 512">
    <path d="M152.485 396.284l19.626-19.626c4.753-4.753 4.675-12.484-.173-17.14L91.22 282H436c6.627 0 12-5.373 12-12v-28c0-6.627-5.373-12-12-12H91.22l80.717-77.518c4.849-4.656 4.927-12.387.173-17.14l-19.626-19.626c-4.686-4.686-12.284-4.686-16.971 0L3.716 247.515c-4.686 4.686-4.686 12.284 0 16.971l131.799 131.799c4.686 4.685 12.284 4.685 16.97-.001z"></path>
  </symbol>
  <symbol id="arrow-left" viewBox="0 0 448 512">
    <path d="M229.9 473.899l19.799-19.799c4.686-4.686 4.686-12.284 0-16.971L94.569 282H436c6.627 0 12-5.373 12-12v-28c0-6.627-5.373-12-12-12H94.569l155.13-155.13c4.686-4.686 4.686-12.284 0-16.971L229.9 38.101c-4.686-4.686-12.284-4.686-16.971 0L3.515 247.515c-4.686 4.686-4.686 12.284 0 16.971L212.929 473.9c4.686 4.686 12.284 4.686 16.971-.001z"></path>
  </symbol>
  <symbol id="arrow-right" viewBox="0 0 448 512">
    <path d="M218.101 38.101L198.302 57.9c-4.686 4.686-4.686 12.284 0 16.971L353.432 230H12c-6.627 0-12 5.373-12 12v28c0 6.627 5.373 12 12 12h341.432l-155.13 155.13c-4.686 4.686-4.686 12.284 0 16.971l19.799 19.799c4.686 4.686 12.284 4.686 16.971 0l209.414-209.414c4.686-4.686 4.686-12.284 0-16.971L235.071 38.101c-4.686-4.687-12.284-4.687-16.97 0z"></path>
  </symbol>
  <symbol id="arrow-up-right-from-square" viewBox="0 0 512 512">
    <path d="M392 320c-13.25 0-24 10.75-24 24v112c0 4.406-3.594 8-8 8h-304c-4.406 0-8-3.594-8-8v-304c0-4.406 3.594-8 8-8h112C181.3 144 192 133.3 192 120S181.3 96 168 96h-112C25.13 96 0 121.1 0 152v304C0 486.9 25.13 512 56 512h304c30.88 0 56-25.12 56-56v-112C416 330.8 405.3 320 392 320zM488 0H320c-13.25 0-24 10.75-24 24S306.8 48 320 48h110.1L183 295c-9.375 9.375-9.375 24.56 0 33.94C187.7 333.7 193.8 336 200 336s12.28-2.344 16.97-7.031L464 81.94V192c0 13.25 10.75 24 24 24S512 205.3 512 192V24C512 10.75 501.3 0 488 0z"></path>
  </symbol>
  <symbol id="angle-down" viewBox="0 0 320 512">
    <path d="M151.5 347.8L3.5 201c-4.7-4.7-4.7-12.3 0-17l19.8-19.8c4.7-4.7 12.3-4.7 17 0L160 282.7l119.7-118.5c4.7-4.7 12.3-4.7 17 0l19.8 19.8c4.7 4.7 4.7 12.3 0 17l-148 146.8c-4.7 4.7-12.3 4.7-17 0z"></path>
  </symbol>
  <symbol id="angle-left" viewBox="0 0 192 512">
    <path d="M4.2 247.5L151 99.5c4.7-4.7 12.3-4.7 17 0l19.8 19.8c4.7 4.7 4.7 12.3 0 17L69.3 256l118.5 119.7c4.7 4.7 4.7 12.3 0 17L168 412.5c-4.7 4.7-12.3 4.7-17 0L4.2 264.5c-4.7-4.7-4.7-12.3 0-17z"></path>
  </symbol>
  <symbol id="angle-right" viewBox="0 0 192 512">
    <path d="M187.8 264.5L41 412.5c-4.7 4.7-12.3 4.7-17 0L4.2 392.7c-4.7-4.7-4.7-12.3 0-17L122.7 256 4.2 136.3c-4.7-4.7-4.7-12.3 0-17L24 99.5c4.7-4.7 12.3-4.7 17 0l146.8 148c4.7 4.7 4.7 12.3 0 17z"></path>
  </symbol>
  <symbol id="angle-up" viewBox="0 0 320 512">
    <path d="M168.5 164.2l148 146.8c4.7 4.7 4.7 12.3 0 17l-19.8 19.8c-4.7 4.7-12.3 4.7-17 0L160 229.3 40.3 347.8c-4.7 4.7-12.3 4.7-17 0L3.5 328c-4.7-4.7-4.7-12.3 0-17l148-146.8c4.7-4.7 12.3-4.7 17 0z"></path>
  </symbol>
  <symbol id="angle-double-up" viewBox="0 0 320 512">
    <path d="M177 255.7l136 136c9.4 9.4 9.4 24.6 0 33.9l-22.6 22.6c-9.4 9.4-24.6 9.4-33.9 0L160 351.9l-96.4 96.4c-9.4 9.4-24.6 9.4-33.9 0L7 425.7c-9.4-9.4-9.4-24.6 0-33.9l136-136c9.4-9.5 24.6-9.5 34-.1zm-34-192L7 199.7c-9.4 9.4-9.4 24.6 0 33.9l22.6 22.6c9.4 9.4 24.6 9.4 33.9 0l96.4-96.4 96.4 96.4c9.4 9.4 24.6 9.4 33.9 0l22.6-22.6c9.4-9.4 9.4-24.6 0-33.9l-136-136c-9.2-9.4-24.4-9.4-33.8 0z"></path>
  </symbol>
  <symbol id="align-left" viewBox="0 0 448 512">
    <path d="M12.83 344h262.34A12.82 12.82 0 0 0 288 331.17v-22.34A12.82 12.82 0 0 0 275.17 296H12.83A12.82 12.82 0 0 0 0 308.83v22.34A12.82 12.82 0 0 0 12.83 344zm0-256h262.34A12.82 12.82 0 0 0 288 75.17V52.83A12.82 12.82 0 0 0 275.17 40H12.83A12.82 12.82 0 0 0 0 52.83v22.34A12.82 12.82 0 0 0 12.83 88zM432 168H16a16 16 0 0 0-16 16v16a16 16 0 0 0 16 16h416a16 16 0 0 0 16-16v-16a16 16 0 0 0-16-16zm0 256H16a16 16 0 0 0-16 16v16a16 16 0 0 0 16 16h416a16 16 0 0 0 16-16v-16a16 16 0 0 0-16-16z"></path>
  </symbol>
  <symbol id="caret-circle-down" viewBox="0 0 512 512">
    <path d="M157.1 216h197.8c10.7 0 16.1 13 8.5 20.5l-98.9 98.3c-4.7 4.7-12.2 4.7-16.9 0l-98.9-98.3c-7.7-7.5-2.3-20.5 8.4-20.5zM504 256c0 137-111 248-248 248S8 393 8 256 119 8 256 8s248 111 248 248zm-48 0c0-110.5-89.5-200-200-200S56 145.5 56 256s89.5 200 200 200 200-89.5 200-200z"></path>
  </symbol>
  <symbol id="caret-circle-up" viewBox="0 0 512 512">
    <path d="M354.9 296H157.1c-10.7 0-16.1-13-8.5-20.5l98.9-98.3c4.7-4.7 12.2-4.7 16.9 0l98.9 98.3c7.7 7.5 2.3 20.5-8.4 20.5zM8 256C8 119 119 8 256 8s248 111 248 248-111 248-248 248S8 393 8 256zm48 0c0 110.5 89.5 200 200 200s200-89.5 200-200S366.5 56 256 56 56 145.5 56 256z"></path>
  </symbol>
  <symbol id="caret-down" viewBox="0 0 320 512">
    <path d="M272 160H48.1c-42.6 0-64.2 51.7-33.9 81.9l111.9 112c18.7 18.7 49.1 18.7 67.9 0l112-112c30-30.1 8.7-81.9-34-81.9zM160 320L48 208h224L160 320z"></path>
  </symbol>
  <symbol id="caret-left" viewBox="0 0 224 512">
    <path d="M224 367.952V144.057c0-42.638-51.731-64.151-81.941-33.941l-112 111.943c-18.745 18.745-18.746 49.137 0 67.882l112 111.952C172.208 432.042 224 410.675 224 367.952zM64 256l112-112v224L64 256z"></path>
  </symbol>
  <symbol id="caret-right" viewBox="0 0 224 512">
    <path d="M0 144.048v223.895c0 42.638 51.731 64.151 81.941 33.941l112-111.943c18.745-18.745 18.746-49.137 0-67.882l-112-111.952C51.792 79.958 0 101.325 0 144.048zM160 256L48 368V144l112 112z"></path>
  </symbol>
  <symbol id="caret-up" viewBox="0 0 320 512">
    <path d="M48.048 352h223.895c42.638 0 64.151-51.731 33.941-81.941l-111.943-112c-18.745-18.745-49.137-18.746-67.882 0l-111.952 112C-16.042 300.208 5.325 352 48.048 352zM160 192l112 112H48l112-112z"></path>
  </symbol>
  <symbol id="caret-down-solid" viewBox="0 0 320 512">
    <path d="M31.3 192h257.3c17.8 0 26.7 21.5 14.1 34.1L174.1 354.8c-7.8 7.8-20.5 7.8-28.3 0L17.2 226.1C4.6 213.5 13.5 192 31.3 192z"></path>
  </symbol>
  <symbol id="caret-left-solid" viewBox="0 0 192 512">
    <path d="M192 127.338v257.324c0 17.818-21.543 26.741-34.142 14.142L29.196 270.142c-7.81-7.81-7.81-20.474 0-28.284l128.662-128.662c12.599-12.6 34.142-3.676 34.142 14.142z"></path>
  </symbol>
  <symbol id="caret-right-solid" viewBox="0 0 192 512">
    <path d="M0 384.662V127.338c0-17.818 21.543-26.741 34.142-14.142l128.662 128.662c7.81 7.81 7.81 20.474 0 28.284L34.142 398.804C21.543 411.404 0 402.48 0 384.662z"></path>
  </symbol>
    <symbol id="caret-up-solid" viewBox="0 0 320 512">
    <path d="M288.662 352H31.338c-17.818 0-26.741-21.543-14.142-34.142l128.662-128.662c7.81-7.81 20.474-7.81 28.284 0l128.662 128.662c12.6 12.599 3.676 34.142-14.142 34.142z"></path>
  </symbol>
  <symbol id="bars" viewBox="0 0 448 512">
    <path d="M436 124H12c-6.627 0-12-5.373-12-12V80c0-6.627 5.373-12 12-12h424c6.627 0 12 5.373 12 12v32c0 6.627-5.373 12-12 12zm0 160H12c-6.627 0-12-5.373-12-12v-32c0-6.627 5.373-12 12-12h424c6.627 0 12 5.373 12 12v32c0 6.627-5.373 12-12 12zm0 160H12c-6.627 0-12-5.373-12-12v-32c0-6.627 5.373-12 12-12h424c6.627 0 12 5.373 12 12v32c0 6.627-5.373 12-12 12z"></path>
  </symbol>
  <symbol id="user" viewBox="0 0 448 512">
    <path d="M313.6 304c-28.7 0-42.5 16-89.6 16-47.1 0-60.8-16-89.6-16C60.2 304 0 364.2 0 438.4V464c0 26.5 21.5 48 48 48h352c26.5 0 48-21.5 48-48v-25.6c0-74.2-60.2-134.4-134.4-134.4zM400 464H48v-25.6c0-47.6 38.8-86.4 86.4-86.4 14.6 0 38.3 16 89.6 16 51.7 0 74.9-16 89.6-16 47.6 0 86.4 38.8 86.4 86.4V464zM224 288c79.5 0 144-64.5 144-144S303.5 0 224 0 80 64.5 80 144s64.5 144 144 144zm0-240c52.9 0 96 43.1 96 96s-43.1 96-96 96-96-43.1-96-96 43.1-96 96-96z"></path>
  </symbol>
  <symbol id="user-solid" viewBox="0 0 448 512">
    <path d="M224 256c70.7 0 128-57.3 128-128S294.7 0 224 0 96 57.3 96 128s57.3 128 128 128zm89.6 32h-16.7c-22.2 10.2-46.9 16-72.9 16s-50.6-5.8-72.9-16h-16.7C60.2 288 0 348.2 0 422.4V464c0 26.5 21.5 48 48 48h352c26.5 0 48-21.5 48-48v-41.6c0-74.2-60.2-134.4-134.4-134.4z"></path>
  </symbol>
  <symbol id="user-duotone" viewBox="0 0 448 512">
    <path d="M352 128A128 128 0 1 1 224 0a128 128 0 0 1 128 128z" class="fa-secondary" fill="var(--fa-secondary-color)"></path><path d="M313.6 288h-16.7a174.1 174.1 0 0 1-145.8 0h-16.7A134.43 134.43 0 0 0 0 422.4V464a48 48 0 0 0 48 48h352a48 48 0 0 0 48-48v-41.6A134.43 134.43 0 0 0 313.6 288z" class="fa-primary" fill="var(--fa-primary-color)"></path>
  </symbol>
  <symbol id="users" viewBox="0 0 640 512">
    <path d="M544 224c44.2 0 80-35.8 80-80s-35.8-80-80-80-80 35.8-80 80 35.8 80 80 80zm0-112c17.6 0 32 14.4 32 32s-14.4 32-32 32-32-14.4-32-32 14.4-32 32-32zM96 224c44.2 0 80-35.8 80-80s-35.8-80-80-80-80 35.8-80 80 35.8 80 80 80zm0-112c17.6 0 32 14.4 32 32s-14.4 32-32 32-32-14.4-32-32 14.4-32 32-32zm396.4 210.9c-27.5-40.8-80.7-56-127.8-41.7-14.2 4.3-29.1 6.7-44.7 6.7s-30.5-2.4-44.7-6.7c-47.1-14.3-100.3.8-127.8 41.7-12.4 18.4-19.6 40.5-19.6 64.3V432c0 26.5 21.5 48 48 48h288c26.5 0 48-21.5 48-48v-44.8c.2-23.8-7-45.9-19.4-64.3zM464 432H176v-44.8c0-36.4 29.2-66.2 65.4-67.2 25.5 10.6 51.9 16 78.6 16 26.7 0 53.1-5.4 78.6-16 36.2 1 65.4 30.7 65.4 67.2V432zm92-176h-24c-17.3 0-33.4 5.3-46.8 14.3 13.4 10.1 25.2 22.2 34.4 36.2 3.9-1.4 8-2.5 12.3-2.5h24c19.8 0 36 16.2 36 36 0 13.2 10.8 24 24 24s24-10.8 24-24c.1-46.3-37.6-84-83.9-84zm-236 0c61.9 0 112-50.1 112-112S381.9 32 320 32 208 82.1 208 144s50.1 112 112 112zm0-176c35.3 0 64 28.7 64 64s-28.7 64-64 64-64-28.7-64-64 28.7-64 64-64zM154.8 270.3c-13.4-9-29.5-14.3-46.8-14.3H84c-46.3 0-84 37.7-84 84 0 13.2 10.8 24 24 24s24-10.8 24-24c0-19.8 16.2-36 36-36h24c4.4 0 8.5 1.1 12.3 2.5 9.3-14 21.1-26.1 34.5-36.2z"></path>
  </symbol>
  <symbol id="user-plus" viewBox="0 0 640 512">
    <path d="M224 288c79.5 0 144-64.5 144-144S303.5 0 224 0 80 64.5 80 144s64.5 144 144 144zm0-240c52.9 0 96 43.1 96 96s-43.1 96-96 96-96-43.1-96-96 43.1-96 96-96zm89.6 256c-28.7 0-42.5 16-89.6 16-47.1 0-60.8-16-89.6-16C60.2 304 0 364.2 0 438.4V464c0 26.5 21.5 48 48 48h352c26.5 0 48-21.5 48-48v-25.6c0-74.2-60.2-134.4-134.4-134.4zM400 464H48v-25.6c0-47.6 38.8-86.4 86.4-86.4 14.6 0 38.3 16 89.6 16 51.7 0 74.9-16 89.6-16 47.6 0 86.4 38.8 86.4 86.4V464zm224-248h-72v-72c0-8.8-7.2-16-16-16h-16c-8.8 0-16 7.2-16 16v72h-72c-8.8 0-16 7.2-16 16v16c0 8.8 7.2 16 16 16h72v72c0 8.8 7.2 16 16 16h16c8.8 0 16-7.2 16-16v-72h72c8.8 0 16-7.2 16-16v-16c0-8.8-7.2-16-16-16z"></path>
  </symbol>
  <symbol id="user-circle" viewBox="0 0 496 512">
    <path d="M248 104c-53 0-96 43-96 96s43 96 96 96 96-43 96-96-43-96-96-96zm0 144c-26.5 0-48-21.5-48-48s21.5-48 48-48 48 21.5 48 48-21.5 48-48 48zm0-240C111 8 0 119 0 256s111 248 248 248 248-111 248-248S385 8 248 8zm0 448c-49.7 0-95.1-18.3-130.1-48.4 14.9-23 40.4-38.6 69.6-39.5 20.8 6.4 40.6 9.6 60.5 9.6s39.7-3.1 60.5-9.6c29.2 1 54.7 16.5 69.6 39.5-35 30.1-80.4 48.4-130.1 48.4zm162.7-84.1c-24.4-31.4-62.1-51.9-105.1-51.9-10.2 0-26 9.6-57.6 9.6-31.5 0-47.4-9.6-57.6-9.6-42.9 0-80.6 20.5-105.1 51.9C61.9 339.2 48 299.2 48 256c0-110.3 89.7-200 200-200s200 89.7 200 200c0 43.2-13.9 83.2-37.3 115.9z"></path>
  </symbol>
  <symbol id="user-gear-duotone" viewBox="0 0 640 512">
    <path d="M224 256c70.7 0 128-57.31 128-128S294.7 0 224 0C153.3 0 96 57.31 96 128S153.3 256 224 256zM425.1 491.8v-9.172c-2.303-1.25-4.572-2.559-6.809-3.93l-7.818 4.493c-6.002 3.504-12.83 5.352-19.75 5.352c-10.71 0-21.13-4.492-28.97-12.75c-18.41-20.09-32.29-44.15-40.22-69.9c-5.352-18.06 2.343-36.87 17.83-45.24l8.018-4.669c-.0664-2.621-.0664-5.242 0-7.859l-7.655-4.461c-12.3-6.953-19.4-19.66-19.64-33.38C305.6 306.3 290.4 304 274.7 304H173.3C77.61 304 0 381.7 0 477.4C0 496.5 15.52 512 34.66 512H413.3c5.727 0 10.9-1.727 15.66-4.188C426.7 502.8 425.1 497.5 425.1 491.8z" class="fa-secondary" fill="var(--fa-secondary-color)"></path><path d="M610.5 373.3c2.625-14 2.625-28.5 0-42.5l25.75-15c3-1.625 4.375-5.125 3.375-8.5c-6.75-21.5-18.25-41.13-33.25-57.38c-2.25-2.5-6-3.125-9-1.375l-25.75 14.88c-10.88-9.25-23.38-16.5-36.88-21.25V212.3c0-3.375-2.5-6.375-5.75-7c-22.25-5-45-4.875-66.25 0c-3.25 .625-5.625 3.625-5.625 7v29.88c-13.5 4.75-26 12-36.88 21.25L394.4 248.5c-2.875-1.75-6.625-1.125-9 1.375c-15 16.25-26.5 35.88-33.13 57.38c-1 3.375 .3751 6.875 3.25 8.5l25.75 15c-2.5 14-2.5 28.5 0 42.5l-25.75 15c-3 1.625-4.25 5.125-3.25 8.5c6.625 21.5 18.13 41 33.13 57.38c2.375 2.5 6 3.125 9 1.375l25.88-14.88c10.88 9.25 23.38 16.5 36.88 21.25v29.88c0 3.375 2.375 6.375 5.625 7c22.38 5 45 4.875 66.25 0c3.25-.625 5.75-3.625 5.75-7v-29.88c13.5-4.75 26-12 36.88-21.25l25.75 14.88c2.875 1.75 6.75 1.125 9-1.375c15-16.25 26.5-35.88 33.25-57.38c1-3.375-.3751-6.875-3.375-8.5L610.5 373.3zM496 400.5c-26.75 0-48.5-21.75-48.5-48.5s21.75-48.5 48.5-48.5c26.75 0 48.5 21.75 48.5 48.5S522.8 400.5 496 400.5z" class="fa-primary" fill="var(--fa-primary-color)"></path>
  </symbol>
  <symbol id="user-circle-solid" viewBox="0 0 496 512">
    <path d="M248 8C111 8 0 119 0 256s111 248 248 248 248-111 248-248S385 8 248 8zm0 96c48.6 0 88 39.4 88 88s-39.4 88-88 88-88-39.4-88-88 39.4-88 88-88zm0 344c-58.7 0-111.3-26.6-146.5-68.2 18.8-35.4 55.6-59.8 98.5-59.8 2.4 0 4.8.4 7.1 1.1 13 4.2 26.6 6.9 40.9 6.9 14.3 0 28-2.7 40.9-6.9 2.3-.7 4.7-1.1 7.1-1.1 42.9 0 79.7 24.4 98.5 59.8C359.3 421.4 306.7 448 248 448z"></path>
  </symbol>
  <symbol id="envelope" viewBox="0 0 512 512">
    <path d="M464 64H48C21.49 64 0 85.49 0 112v288c0 26.51 21.49 48 48 48h416c26.51 0 48-21.49 48-48V112c0-26.51-21.49-48-48-48zm0 48v40.805c-22.422 18.259-58.168 46.651-134.587 106.49-16.841 13.247-50.201 45.072-73.413 44.701-23.208.375-56.579-31.459-73.413-44.701C106.18 199.465 70.425 171.067 48 152.805V112h416zM48 400V214.398c22.914 18.251 55.409 43.862 104.938 82.646 21.857 17.205 60.134 55.186 103.062 54.955 42.717.231 80.509-37.199 103.053-54.947 49.528-38.783 82.032-64.401 104.947-82.653V400H48z"></path>
  </symbol>
  <symbol id="envelope-square" viewBox="0 0 448 512">
    <path d="M400 32H48C21.49 32 0 53.49 0 80v352c0 26.51 21.49 48 48 48h352c26.51 0 48-21.49 48-48V80c0-26.51-21.49-48-48-48zM178.117 262.104C87.429 196.287 88.353 196.121 64 177.167V152c0-13.255 10.745-24 24-24h272c13.255 0 24 10.745 24 24v25.167c-24.371 18.969-23.434 19.124-114.117 84.938-10.5 7.655-31.392 26.12-45.883 25.894-14.503.218-35.367-18.227-45.883-25.895zM384 217.775V360c0 13.255-10.745 24-24 24H88c-13.255 0-24-10.745-24-24V217.775c13.958 10.794 33.329 25.236 95.303 70.214 14.162 10.341 37.975 32.145 64.694 32.01 26.887.134 51.037-22.041 64.72-32.025 61.958-44.965 81.325-59.406 95.283-70.199z"></path>
  </symbol>
  <symbol id="phone-alt" viewBox="0 0 512 512">
    <path d="M484.25 330l-101.59-43.55a45.86 45.86 0 0 0-53.39 13.1l-32.7 40a311.08 311.08 0 0 1-124.19-124.12l40-32.7a45.91 45.91 0 0 0 13.1-53.42L182 27.79a45.63 45.63 0 0 0-52.31-26.61L35.5 22.89A45.59 45.59 0 0 0 0 67.5C0 313.76 199.68 512.1 444.56 512a45.58 45.58 0 0 0 44.59-35.51l21.7-94.22a45.75 45.75 0 0 0-26.6-52.27zm-41.59 134.09C225.08 463.09 49 287 48 69.3l90.69-20.9 42.09 98.22-68.09 55.71c46.39 99 98.19 150.63 197 197l55.69-68.11 98.19 42.11z"></path>
  </symbol>
  <symbol id="facebook-square" viewBox="0 0 448 512">
    <path d="M400 32H48A48 48 0 0 0 0 80v352a48 48 0 0 0 48 48h137.25V327.69h-63V256h63v-54.64c0-62.15 37-96.48 93.67-96.48 27.14 0 55.52 4.84 55.52 4.84v61h-31.27c-30.81 0-40.42 19.12-40.42 38.73V256h68.78l-11 71.69h-57.78V480H400a48 48 0 0 0 48-48V80a48 48 0 0 0-48-48z"></path>
  </symbol>
  <symbol id="facebook" viewBox="0 0 512 512">
    <path d="M504 256C504 119 393 8 256 8S8 119 8 256c0 123.78 90.69 226.38 209.25 245V327.69h-63V256h63v-54.64c0-62.15 37-96.48 93.67-96.48 27.14 0 55.52 4.84 55.52 4.84v61h-31.28c-30.8 0-40.41 19.12-40.41 38.73V256h68.78l-11 71.69h-57.78V501C413.31 482.38 504 379.78 504 256z"></path>
  </symbol>
  <symbol id="twitter-square" viewBox="0 0 448 512">
    <path d="M400 32H48C21.5 32 0 53.5 0 80v352c0 26.5 21.5 48 48 48h352c26.5 0 48-21.5 48-48V80c0-26.5-21.5-48-48-48zm-48.9 158.8c.2 2.8.2 5.7.2 8.5 0 86.7-66 186.6-186.6 186.6-37.2 0-71.7-10.8-100.7-29.4 5.3.6 10.4.8 15.8.8 30.7 0 58.9-10.4 81.4-28-28.8-.6-53-19.5-61.3-45.5 10.1 1.5 19.2 1.5 29.6-1.2-30-6.1-52.5-32.5-52.5-64.4v-.8c8.7 4.9 18.9 7.9 29.6 8.3a65.447 65.447 0 0 1-29.2-54.6c0-12.2 3.2-23.4 8.9-33.1 32.3 39.8 80.8 65.8 135.2 68.6-9.3-44.5 24-80.6 64-80.6 18.9 0 35.9 7.9 47.9 20.7 14.8-2.8 29-8.3 41.6-15.8-4.9 15.2-15.2 28-28.8 36.1 13.2-1.4 26-5.1 37.8-10.2-8.9 13.1-20.1 24.7-32.9 34z"></path>
  </symbol>
  <symbol id="linkedin" viewBox="0 0 448 512">
    <path d="M100.28 448H7.4V148.9h92.88zM53.79 108.1C24.09 108.1 0 83.5 0 53.8a53.79 53.79 0 0 1 107.58 0c0 29.7-24.1 54.3-53.79 54.3zM447.9 448h-92.68V302.4c0-34.7-.7-79.2-48.29-79.2-48.29 0-55.69 37.7-55.69 76.7V448h-92.78V148.9h89.08v40.8h1.3c12.4-23.5 42.69-48.3 87.88-48.3 94 0 111.28 61.9 111.28 142.3V448z"></path>
  </symbol>
  <symbol id="google" viewBox="0 0 488 512">
    <path d="M488 261.8C488 403.3 391.1 504 248 504 110.8 504 0 393.2 0 256S110.8 8 248 8c66.8 0 123 24.5 166.3 64.9l-67.5 64.9C258.5 52.6 94.3 116.6 94.3 256c0 86.5 69.1 156.6 153.7 156.6 98.2 0 135-70.4 140.8-106.9H248v-85.3h236.1c2.3 12.7 3.9 24.9 3.9 41.4z"></path>
  </symbol>
  <symbol id="twitter" viewBox="0 0 512 512">
    <path d="M459.37 151.716c.325 4.548.325 9.097.325 13.645 0 138.72-105.583 298.558-298.558 298.558-59.452 0-114.68-17.219-161.137-47.106 8.447.974 16.568 1.299 25.34 1.299 49.055 0 94.213-16.568 130.274-44.832-46.132-.975-84.792-31.188-98.112-72.772 6.498.974 12.995 1.624 19.818 1.624 9.421 0 18.843-1.3 27.614-3.573-48.081-9.747-84.143-51.98-84.143-102.985v-1.299c13.969 7.797 30.214 12.67 47.431 13.319-28.264-18.843-46.781-51.005-46.781-87.391 0-19.492 5.197-37.36 14.294-52.954 51.655 63.675 129.3 105.258 216.365 109.807-1.624-7.797-2.599-15.918-2.599-24.04 0-57.828 46.782-104.934 104.934-104.934 30.213 0 57.502 12.67 76.67 33.137 23.715-4.548 46.456-13.32 66.599-25.34-7.798 24.366-24.366 44.833-46.132 57.827 21.117-2.273 41.584-8.122 60.426-16.243-14.292 20.791-32.161 39.308-52.628 54.253z"></path>
  </symbol>
  <symbol id="github" viewBox="0 0 496 512">
    <path d="M165.9 397.4c0 2-2.3 3.6-5.2 3.6-3.3.3-5.6-1.3-5.6-3.6 0-2 2.3-3.6 5.2-3.6 3-.3 5.6 1.3 5.6 3.6zm-31.1-4.5c-.7 2 1.3 4.3 4.3 4.9 2.6 1 5.6 0 6.2-2s-1.3-4.3-4.3-5.2c-2.6-.7-5.5.3-6.2 2.3zm44.2-1.7c-2.9.7-4.9 2.6-4.6 4.9.3 2 2.9 3.3 5.9 2.6 2.9-.7 4.9-2.6 4.6-4.6-.3-1.9-3-3.2-5.9-2.9zM244.8 8C106.1 8 0 113.3 0 252c0 110.9 69.8 205.8 169.5 239.2 12.8 2.3 17.3-5.6 17.3-12.1 0-6.2-.3-40.4-.3-61.4 0 0-70 15-84.7-29.8 0 0-11.4-29.1-27.8-36.6 0 0-22.9-15.7 1.6-15.4 0 0 24.9 2 38.6 25.8 21.9 38.6 58.6 27.5 72.9 20.9 2.3-16 8.8-27.1 16-33.7-55.9-6.2-112.3-14.3-112.3-110.5 0-27.5 7.6-41.3 23.6-58.9-2.6-6.5-11.1-33.3 2.6-67.9 20.9-6.5 69 27 69 27 20-5.6 41.5-8.5 62.8-8.5s42.8 2.9 62.8 8.5c0 0 48.1-33.6 69-27 13.7 34.7 5.2 61.4 2.6 67.9 16 17.7 25.8 31.5 25.8 58.9 0 96.5-58.9 104.2-114.8 110.5 9.2 7.9 17 22.9 17 46.4 0 33.7-.3 75.4-.3 83.6 0 6.5 4.6 14.4 17.3 12.1C428.2 457.8 496 362.9 496 252 496 113.3 383.5 8 244.8 8zM97.2 352.9c-1.3 1-1 3.3.7 5.2 1.6 1.6 3.9 2.3 5.2 1 1.3-1 1-3.3-.7-5.2-1.6-1.6-3.9-2.3-5.2-1zm-10.8-8.1c-.7 1.3.3 2.9 2.3 3.9 1.6 1 3.6.7 4.3-.7.7-1.3-.3-2.9-2.3-3.9-2-.6-3.6-.3-4.3.7zm32.4 35.6c-1.6 1.3-1 4.3 1.3 6.2 2.3 2.3 5.2 2.6 6.5 1 1.3-1.3.7-4.3-1.3-6.2-2.2-2.3-5.2-2.6-6.5-1zm-11.4-14.7c-1.6 1-1.6 3.6 0 5.9 1.6 2.3 4.3 3.3 5.6 2.3 1.6-1.3 1.6-3.9 0-6.2-1.4-2.3-4-3.3-5.6-2z"></path>
  </symbol>
  <symbol id="briefcase" viewBox="0 0 512 512">
    <path d="M464 128h-80V80c0-26.51-21.49-48-48-48H176c-26.51 0-48 21.49-48 48v48H48c-26.51 0-48 21.49-48 48v256c0 26.51 21.49 48 48 48h416c26.51 0 48-21.49 48-48V176c0-26.51-21.49-48-48-48zM176 80h160v48H176V80zM54 176h404c3.31 0 6 2.69 6 6v74H48v-74c0-3.31 2.69-6 6-6zm404 256H54c-3.31 0-6-2.69-6-6V304h144v24c0 13.25 10.75 24 24 24h80c13.25 0 24-10.75 24-24v-24h144v122c0 3.31-2.69 6-6 6z"></path>
  </symbol>
  <symbol id="ellipsis-v" viewBox="0 0 128 512">
    <path d="M64 208c26.5 0 48 21.5 48 48s-21.5 48-48 48-48-21.5-48-48 21.5-48 48-48zM16 104c0 26.5 21.5 48 48 48s48-21.5 48-48-21.5-48-48-48-48 21.5-48 48zm0 304c0 26.5 21.5 48 48 48s48-21.5 48-48-21.5-48-48-48-48 21.5-48 48z"></path>
  </symbol>
  <symbol id="ellipsis-h" viewBox="0 0 512 512">
    <path d="M304 256c0 26.5-21.5 48-48 48s-48-21.5-48-48 21.5-48 48-48 48 21.5 48 48zm120-48c-26.5 0-48 21.5-48 48s21.5 48 48 48 48-21.5 48-48-21.5-48-48-48zm-336 0c-26.5 0-48 21.5-48 48s21.5 48 48 48 48-21.5 48-48-21.5-48-48-48z"></path>
  </symbol>
  <symbol id="check" viewBox="0 0 512 512">
    <path d="M435.848 83.466L172.804 346.51l-96.652-96.652c-4.686-4.686-12.284-4.686-16.971 0l-28.284 28.284c-4.686 4.686-4.686 12.284 0 16.971l133.421 133.421c4.686 4.686 12.284 4.686 16.971 0l299.813-299.813c4.686-4.686 4.686-12.284 0-16.971l-28.284-28.284c-4.686-4.686-12.284-4.686-16.97 0z"></path>
  </symbol>
  <symbol id="check-circle-solid" viewBox="0 0 512 512">
    <path d="M504 256c0 136.967-111.033 248-248 248S8 392.967 8 256 119.033 8 256 8s248 111.033 248 248zM227.314 387.314l184-184c6.248-6.248 6.248-16.379 0-22.627l-22.627-22.627c-6.248-6.249-16.379-6.249-22.628 0L216 308.118l-70.059-70.059c-6.248-6.248-16.379-6.248-22.628 0l-22.627 22.627c-6.248 6.248-6.248 16.379 0 22.627l104 104c6.249 6.249 16.379 6.249 22.628.001z"></path>
  </symbol>
  <symbol id="download" viewBox="0 0 576 512">
    <path d="M528 288h-92.1l46.1-46.1c30.1-30.1 8.8-81.9-33.9-81.9h-64V48c0-26.5-21.5-48-48-48h-96c-26.5 0-48 21.5-48 48v112h-64c-42.6 0-64.2 51.7-33.9 81.9l46.1 46.1H48c-26.5 0-48 21.5-48 48v128c0 26.5 21.5 48 48 48h480c26.5 0 48-21.5 48-48V336c0-26.5-21.5-48-48-48zm-400-80h112V48h96v160h112L288 368 128 208zm400 256H48V336h140.1l65.9 65.9c18.8 18.8 49.1 18.7 67.9 0l65.9-65.9H528v128zm-88-64c0-13.3 10.7-24 24-24s24 10.7 24 24-10.7 24-24 24-24-10.7-24-24z"></path>
  </symbol>
  <symbol id="upload" viewBox="0 0 576 512">
    <path d="M528 288H384v-32h64c42.6 0 64.2-51.7 33.9-81.9l-160-160c-18.8-18.8-49.1-18.7-67.9 0l-160 160c-30.1 30.1-8.7 81.9 34 81.9h64v32H48c-26.5 0-48 21.5-48 48v128c0 26.5 21.5 48 48 48h480c26.5 0 48-21.5 48-48V336c0-26.5-21.5-48-48-48zm-400-80L288 48l160 160H336v160h-96V208H128zm400 256H48V336h144v32c0 26.5 21.5 48 48 48h96c26.5 0 48-21.5 48-48v-32h144v128zm-40-64c0 13.3-10.7 24-24 24s-24-10.7-24-24 10.7-24 24-24 24 10.7 24 24z"></path>
  </symbol>
  <symbol id="address-card" viewBox="0 0 576 512">
    <path d="M528 32H48C21.5 32 0 53.5 0 80v352c0 26.5 21.5 48 48 48h480c26.5 0 48-21.5 48-48V80c0-26.5-21.5-48-48-48zm0 400H48V80h480v352zM208 256c35.3 0 64-28.7 64-64s-28.7-64-64-64-64 28.7-64 64 28.7 64 64 64zm-89.6 128h179.2c12.4 0 22.4-8.6 22.4-19.2v-19.2c0-31.8-30.1-57.6-67.2-57.6-10.8 0-18.7 8-44.8 8-26.9 0-33.4-8-44.8-8-37.1 0-67.2 25.8-67.2 57.6v19.2c0 10.6 10 19.2 22.4 19.2zM360 320h112c4.4 0 8-3.6 8-8v-16c0-4.4-3.6-8-8-8H360c-4.4 0-8 3.6-8 8v16c0 4.4 3.6 8 8 8zm0-64h112c4.4 0 8-3.6 8-8v-16c0-4.4-3.6-8-8-8H360c-4.4 0-8 3.6-8 8v16c0 4.4 3.6 8 8 8zm0-64h112c4.4 0 8-3.6 8-8v-16c0-4.4-3.6-8-8-8H360c-4.4 0-8 3.6-8 8v16c0 4.4 3.6 8 8 8z"></path>
  </symbol>
  <symbol id="search" viewBox="0 0 512 512">
    <path d="M508.5 468.9L387.1 347.5c-2.3-2.3-5.3-3.5-8.5-3.5h-13.2c31.5-36.5 50.6-84 50.6-136C416 93.1 322.9 0 208 0S0 93.1 0 208s93.1 208 208 208c52 0 99.5-19.1 136-50.6v13.2c0 3.2 1.3 6.2 3.5 8.5l121.4 121.4c4.7 4.7 12.3 4.7 17 0l22.6-22.6c4.7-4.7 4.7-12.3 0-17zM208 368c-88.4 0-160-71.6-160-160S119.6 48 208 48s160 71.6 160 160-71.6 160-160 160z"></path>
  </symbol>
  <symbol id="search-solid" viewBox="0 0 512 512">
    <path d="M505 442.7L405.3 343c-4.5-4.5-10.6-7-17-7H372c27.6-35.3 44-79.7 44-128C416 93.1 322.9 0 208 0S0 93.1 0 208s93.1 208 208 208c48.3 0 92.7-16.4 128-44v16.3c0 6.4 2.5 12.5 7 17l99.7 99.7c9.4 9.4 24.6 9.4 33.9 0l28.3-28.3c9.4-9.4 9.4-24.6.1-34zM208 336c-70.7 0-128-57.2-128-128 0-70.7 57.2-128 128-128 70.7 0 128 57.2 128 128 0 70.7-57.2 128-128 128z"></path>
  </symbol>
  <symbol id="search-duotone" viewBox="0 0 512 512">
    <path d="M208 80a128 128 0 1 1-90.51 37.49A127.15 127.15 0 0 1 208 80m0-80C93.12 0 0 93.12 0 208s93.12 208 208 208 208-93.12 208-208S322.88 0 208 0z" class="fa-secondary" fill="var(--fa-secondary-color)"></path><path d="M504.9 476.7L476.6 505a23.9 23.9 0 0 1-33.9 0L343 405.3a24 24 0 0 1-7-17V372l36-36h16.3a24 24 0 0 1 17 7l99.7 99.7a24.11 24.11 0 0 1-.1 34z" class="fa-primary" fill="var(--fa-primary-color)"></path>
  </symbol>
  <symbol id="search-plus" viewBox="0 0 512 512">
   <path d="M312 196v24c0 6.6-5.4 12-12 12h-68v68c0 6.6-5.4 12-12 12h-24c-6.6 0-12-5.4-12-12v-68h-68c-6.6 0-12-5.4-12-12v-24c0-6.6 5.4-12 12-12h68v-68c0-6.6 5.4-12 12-12h24c6.6 0 12 5.4 12 12v68h68c6.6 0 12 5.4 12 12zm196.5 289.9l-22.6 22.6c-4.7 4.7-12.3 4.7-17 0L347.5 387.1c-2.3-2.3-3.5-5.3-3.5-8.5v-13.2c-36.5 31.5-84 50.6-136 50.6C93.1 416 0 322.9 0 208S93.1 0 208 0s208 93.1 208 208c0 52-19.1 99.5-50.6 136h13.2c3.2 0 6.2 1.3 8.5 3.5l121.4 121.4c4.7 4.7 4.7 12.3 0 17zM368 208c0-88.4-71.6-160-160-160S48 119.6 48 208s71.6 160 160 160 160-71.6 160-160z"></path>
  </symbol>
  <symbol id="times" viewBox="0 0 320 512">
    <path d="M207.6 256l107.72-107.72c6.23-6.23 6.23-16.34 0-22.58l-25.03-25.03c-6.23-6.23-16.34-6.23-22.58 0L160 208.4 52.28 100.68c-6.23-6.23-16.34-6.23-22.58 0L4.68 125.7c-6.23 6.23-6.23 16.34 0 22.58L112.4 256 4.68 363.72c-6.23 6.23-6.23 16.34 0 22.58l25.03 25.03c6.23 6.23 16.34 6.23 22.58 0L160 303.6l107.72 107.72c6.23 6.23 16.34 6.23 22.58 0l25.03-25.03c6.23-6.23 6.23-16.34 0-22.58L207.6 256z"></path>
  </symbol>
  <symbol id="exclamation-triangle" viewBox="0 0 576 512">
    <path d="M248.747 204.705l6.588 112c.373 6.343 5.626 11.295 11.979 11.295h41.37a12 12 0 0 0 11.979-11.295l6.588-112c.405-6.893-5.075-12.705-11.979-12.705h-54.547c-6.903 0-12.383 5.812-11.978 12.705zM330 384c0 23.196-18.804 42-42 42s-42-18.804-42-42 18.804-42 42-42 42 18.804 42 42zm-.423-360.015c-18.433-31.951-64.687-32.009-83.154 0L6.477 440.013C-11.945 471.946 11.118 512 48.054 512H527.94c36.865 0 60.035-39.993 41.577-71.987L329.577 23.985zM53.191 455.002L282.803 57.008c2.309-4.002 8.085-4.002 10.394 0l229.612 397.993c2.308 4-.579 8.998-5.197 8.998H58.388c-4.617.001-7.504-4.997-5.197-8.997z"></path>
  </symbol>
  <symbol id="exclamation-circle" viewBox="0 0 512 512">
    <path d="M256 8C119.043 8 8 119.083 8 256c0 136.997 111.043 248 248 248s248-111.003 248-248C504 119.083 392.957 8 256 8zm0 448c-110.532 0-200-89.431-200-200 0-110.495 89.472-200 200-200 110.491 0 200 89.471 200 200 0 110.53-89.431 200-200 200zm42-104c0 23.159-18.841 42-42 42s-42-18.841-42-42 18.841-42 42-42 42 18.841 42 42zm-81.37-211.401l6.8 136c.319 6.387 5.591 11.401 11.985 11.401h41.17c6.394 0 11.666-5.014 11.985-11.401l6.8-136c.343-6.854-5.122-12.599-11.985-12.599h-54.77c-6.863 0-12.328 5.745-11.985 12.599z"></path>
  </symbol>
  <symbol id="info-circle" viewBox="0 0 512 512">
    <path d="M256 8C119.043 8 8 119.083 8 256c0 136.997 111.043 248 248 248s248-111.003 248-248C504 119.083 392.957 8 256 8zm0 448c-110.532 0-200-89.431-200-200 0-110.495 89.472-200 200-200 110.491 0 200 89.471 200 200 0 110.53-89.431 200-200 200zm0-338c23.196 0 42 18.804 42 42s-18.804 42-42 42-42-18.804-42-42 18.804-42 42-42zm56 254c0 6.627-5.373 12-12 12h-88c-6.627 0-12-5.373-12-12v-24c0-6.627 5.373-12 12-12h12v-64h-12c-6.627 0-12-5.373-12-12v-24c0-6.627 5.373-12 12-12h64c6.627 0 12 5.373 12 12v100h12c6.627 0 12 5.373 12 12v24z"></path>
  </symbol>
  <symbol id="map-marker-alt" viewBox="0 0 384 512">
    <path d="M192 0C85.903 0 0 86.014 0 192c0 71.117 23.991 93.341 151.271 297.424 18.785 30.119 62.694 30.083 81.457 0C360.075 285.234 384 263.103 384 192 384 85.903 297.986 0 192 0zm0 464C64.576 259.686 48 246.788 48 192c0-79.529 64.471-144 144-144s144 64.471 144 144c0 54.553-15.166 65.425-144 272zm-80-272c0-44.183 35.817-80 80-80s80 35.817 80 80-35.817 80-80 80-80-35.817-80-80z"></path>
  </symbol>
  <symbol id="calendar-alt" viewBox="0 0 448 512">
    <path d="M148 288h-40c-6.6 0-12-5.4-12-12v-40c0-6.6 5.4-12 12-12h40c6.6 0 12 5.4 12 12v40c0 6.6-5.4 12-12 12zm108-12v-40c0-6.6-5.4-12-12-12h-40c-6.6 0-12 5.4-12 12v40c0 6.6 5.4 12 12 12h40c6.6 0 12-5.4 12-12zm96 0v-40c0-6.6-5.4-12-12-12h-40c-6.6 0-12 5.4-12 12v40c0 6.6 5.4 12 12 12h40c6.6 0 12-5.4 12-12zm-96 96v-40c0-6.6-5.4-12-12-12h-40c-6.6 0-12 5.4-12 12v40c0 6.6 5.4 12 12 12h40c6.6 0 12-5.4 12-12zm-96 0v-40c0-6.6-5.4-12-12-12h-40c-6.6 0-12 5.4-12 12v40c0 6.6 5.4 12 12 12h40c6.6 0 12-5.4 12-12zm192 0v-40c0-6.6-5.4-12-12-12h-40c-6.6 0-12 5.4-12 12v40c0 6.6 5.4 12 12 12h40c6.6 0 12-5.4 12-12zm96-260v352c0 26.5-21.5 48-48 48H48c-26.5 0-48-21.5-48-48V112c0-26.5 21.5-48 48-48h48V12c0-6.6 5.4-12 12-12h40c6.6 0 12 5.4 12 12v52h128V12c0-6.6 5.4-12 12-12h40c6.6 0 12 5.4 12 12v52h48c26.5 0 48 21.5 48 48zm-48 346V160H48v298c0 3.3 2.7 6 6 6h340c3.3 0 6-2.7 6-6z"></path>
  </symbol>
  <symbol id="calendar-plus" viewBox="0 0 448 512">
    <path d="M336 292v24c0 6.6-5.4 12-12 12h-76v76c0 6.6-5.4 12-12 12h-24c-6.6 0-12-5.4-12-12v-76h-76c-6.6 0-12-5.4-12-12v-24c0-6.6 5.4-12 12-12h76v-76c0-6.6 5.4-12 12-12h24c6.6 0 12 5.4 12 12v76h76c6.6 0 12 5.4 12 12zm112-180v352c0 26.5-21.5 48-48 48H48c-26.5 0-48-21.5-48-48V112c0-26.5 21.5-48 48-48h48V12c0-6.6 5.4-12 12-12h40c6.6 0 12 5.4 12 12v52h128V12c0-6.6 5.4-12 12-12h40c6.6 0 12 5.4 12 12v52h48c26.5 0 48 21.5 48 48zm-48 346V160H48v298c0 3.3 2.7 6 6 6h340c3.3 0 6-2.7 6-6z"></path>
  </symbol>
  <symbol id="microphone-alt" viewBox="0 0 352 512">
    <path d="M336 192h-16c-8.84 0-16 7.16-16 16v48c0 74.8-64.49 134.82-140.79 127.38C96.71 376.89 48 317.11 48 250.3V208c0-8.84-7.16-16-16-16H16c-8.84 0-16 7.16-16 16v40.16c0 89.64 63.97 169.55 152 181.69V464H96c-8.84 0-16 7.16-16 16v16c0 8.84 7.16 16 16 16h160c8.84 0 16-7.16 16-16v-16c0-8.84-7.16-16-16-16h-56v-33.77C285.71 418.47 352 344.9 352 256v-48c0-8.84-7.16-16-16-16zM176 352c53.02 0 96-42.98 96-96V96c0-53.02-42.98-96-96-96S80 42.98 80 96v160c0 53.02 42.98 96 96 96zM128 96c0-26.47 21.53-48 48-48s48 21.53 48 48h-40c-4.42 0-8 3.58-8 8v16c0 4.42 3.58 8 8 8h40v32h-40c-4.42 0-8 3.58-8 8v16c0 4.42 3.58 8 8 8h40v32h-40c-4.42 0-8 3.58-8 8v16c0 4.42 3.58 8 8 8h40c0 26.47-21.53 48-48 48s-48-21.53-48-48V96z"></path>
  </symbol>
  <symbol id="plus" viewBox="0 0 384 512">
    <path d="M368 224H224V80c0-8.84-7.16-16-16-16h-32c-8.84 0-16 7.16-16 16v144H16c-8.84 0-16 7.16-16 16v32c0 8.84 7.16 16 16 16h144v144c0 8.84 7.16 16 16 16h32c8.84 0 16-7.16 16-16V288h144c8.84 0 16-7.16 16-16v-32c0-8.84-7.16-16-16-16z"></path>
  </symbol>
  <symbol id="edit" viewBox="0 0 576 512">
    <path d="M402.3 344.9l32-32c5-5 13.7-1.5 13.7 5.7V464c0 26.5-21.5 48-48 48H48c-26.5 0-48-21.5-48-48V112c0-26.5 21.5-48 48-48h273.5c7.1 0 10.7 8.6 5.7 13.7l-32 32c-1.5 1.5-3.5 2.3-5.7 2.3H48v352h352V350.5c0-2.1.8-4.1 2.3-5.6zm156.6-201.8L296.3 405.7l-90.4 10c-26.2 2.9-48.5-19.2-45.6-45.6l10-90.4L432.9 17.1c22.9-22.9 59.9-22.9 82.7 0l43.2 43.2c22.9 22.9 22.9 60 .1 82.8zM460.1 174L402 115.9 216.2 301.8l-7.3 65.3 65.3-7.3L460.1 174zm64.8-79.7l-43.2-43.2c-4.1-4.1-10.8-4.1-14.8 0L436 82l58.1 58.1 30.9-30.9c4-4.2 4-10.8-.1-14.9z"></path>
  </symbol>
  <symbol id="pen" viewBox="0 0 512 512">
    <path d="M493.26 56.26l-37.51-37.51C443.25 6.25 426.87 0 410.49 0s-32.76 6.25-45.25 18.74l-74.49 74.49L256 127.98 12.85 371.12.15 485.34C-1.45 499.72 9.88 512 23.95 512c.89 0 1.79-.05 2.69-.15l114.14-12.61L384.02 256l34.74-34.74 74.49-74.49c25-25 25-65.52.01-90.51zM118.75 453.39l-67.58 7.46 7.53-67.69 231.24-231.24 31.02-31.02 60.14 60.14-31.02 31.02-231.33 231.33zm340.56-340.57l-44.28 44.28-60.13-60.14 44.28-44.28c4.08-4.08 8.84-4.69 11.31-4.69s7.24.61 11.31 4.69l37.51 37.51c6.24 6.25 6.24 16.4 0 22.63z"></path>
  </symbol>
  <symbol id="archive" viewBox="0 0 512 512">
    <path d="M464 32H48C21.5 32 0 53.5 0 80v80c0 8.8 7.2 16 16 16h16v272c0 17.7 14.3 32 32 32h384c17.7 0 32-14.3 32-32V176h16c8.8 0 16-7.2 16-16V80c0-26.5-21.5-48-48-48zm-32 400H80V176h352v256zm32-304H48V80h416v48zM204 272h104c6.6 0 12-5.4 12-12v-24c0-6.6-5.4-12-12-12H204c-6.6 0-12 5.4-12 12v24c0 6.6 5.4 12 12 12z"></path>
  </symbol>
  <symbol id="trash-alt" viewBox="0 0 448 512">
    <path d="M268 416h24a12 12 0 0 0 12-12V188a12 12 0 0 0-12-12h-24a12 12 0 0 0-12 12v216a12 12 0 0 0 12 12zM432 80h-82.41l-34-56.7A48 48 0 0 0 274.41 0H173.59a48 48 0 0 0-41.16 23.3L98.41 80H16A16 16 0 0 0 0 96v16a16 16 0 0 0 16 16h16v336a48 48 0 0 0 48 48h288a48 48 0 0 0 48-48V128h16a16 16 0 0 0 16-16V96a16 16 0 0 0-16-16zM171.84 50.91A6 6 0 0 1 177 48h94a6 6 0 0 1 5.15 2.91L293.61 80H154.39zM368 464H80V128h288zm-212-48h24a12 12 0 0 0 12-12V188a12 12 0 0 0-12-12h-24a12 12 0 0 0-12 12v216a12 12 0 0 0 12 12z"></path>
  </symbol>
  <symbol id="grip-vertical" viewBox="0 0 320 512">
    <path d="M120 0H24C10.75 0 0 10.74 0 24v96c0 13.25 10.75 24 24 24h96c13.26 0 24-10.75 24-24V24c0-13.26-10.74-24-24-24zM96 96H48V48h48v48zM296 0h-96c-13.25 0-24 10.74-24 24v96c0 13.25 10.75 24 24 24h96c13.26 0 24-10.75 24-24V24c0-13.26-10.74-24-24-24zm-24 96h-48V48h48v48zM120 368H24c-13.25 0-24 10.74-24 24v96c0 13.25 10.75 24 24 24h96c13.26 0 24-10.75 24-24v-96c0-13.26-10.74-24-24-24zm-24 96H48v-48h48v48zm200-96h-96c-13.25 0-24 10.74-24 24v96c0 13.25 10.75 24 24 24h96c13.26 0 24-10.75 24-24v-96c0-13.26-10.74-24-24-24zm-24 96h-48v-48h48v48zM120 184H24c-13.25 0-24 10.74-24 24v96c0 13.25 10.75 24 24 24h96c13.26 0 24-10.75 24-24v-96c0-13.26-10.74-24-24-24zm-24 96H48v-48h48v48zm200-96h-96c-13.25 0-24 10.74-24 24v96c0 13.25 10.75 24 24 24h96c13.26 0 24-10.75 24-24v-96c0-13.26-10.74-24-24-24zm-24 96h-48v-48h48v48z"></path>
  </symbol>
  <symbol id="grip-lines" viewBox="0 0 448 512">
    <path d="M432 288H16c-8.8 0-16 7.2-16 16v16c0 8.8 7.2 16 16 16h416c8.8 0 16-7.2 16-16v-16c0-8.8-7.2-16-16-16zm0-112H16c-8.8 0-16 7.2-16 16v16c0 8.8 7.2 16 16 16h416c8.8 0 16-7.2 16-16v-16c0-8.8-7.2-16-16-16z"></path>
  </symbol>
  <symbol id="heart" viewBox="0 0 512 512">
    <path d="M458.4 64.3C400.6 15.7 311.3 23 256 79.3 200.7 23 111.4 15.6 53.6 64.3-21.6 127.6-10.6 230.8 43 285.5l175.4 178.7c10 10.2 23.4 15.9 37.6 15.9 14.3 0 27.6-5.6 37.6-15.8L469 285.6c53.5-54.7 64.7-157.9-10.6-221.3zm-23.6 187.5L259.4 430.5c-2.4 2.4-4.4 2.4-6.8 0L77.2 251.8c-36.5-37.2-43.9-107.6 7.3-150.7 38.9-32.7 98.9-27.8 136.5 10.5l35 35.7 35-35.7c37.8-38.5 97.8-43.2 136.5-10.6 51.1 43.1 43.5 113.9 7.3 150.8z"></path>
  </symbol>
  <symbol id="heart-filled" viewBox="0 0 512 512">
    <path d="M462.3 62.6C407.5 15.9 326 24.3 275.7 76.2L256 96.5l-19.7-20.3C186.1 24.3 104.5 15.9 49.7 62.6c-62.8 53.6-66.1 149.8-9.9 207.9l193.5 199.8c12.5 12.9 32.8 12.9 45.3 0l193.5-199.8c56.3-58.1 53-154.3-9.8-207.9z"></path>
  </symbol>
  <symbol id="video" viewBox="0 0 576 512">
    <path d="M543.9 96c-6.2 0-12.5 1.8-18.2 5.7L416 170.1v-58.3c0-26.4-23.2-47.8-51.8-47.8H51.8C23.2 64 0 85.4 0 111.8v288.4C0 426.6 23.2 448 51.8 448h312.4c28.6 0 51.8-21.4 51.8-47.8v-58.3l109.7 68.3c5.7 4 12.1 5.7 18.2 5.7 16.6 0 32.1-13 32.1-31.5V127.5C576 109 560.5 96 543.9 96zM368 200v198.9c-.6.4-1.8 1.1-3.8 1.1H51.8c-2 0-3.2-.6-3.8-1.1V113.1c.6-.4 1.8-1.1 3.8-1.1h312.4c2 0 3.2.6 3.8 1.1V200zm160 155.2l-112-69.8v-58.7l112-69.8v198.3z"></path>
  </symbol>
  <symbol id="video-plus" viewBox="0 0 576 512">
    <path d="M336.2 64H47.8C21.4 64 0 85.4 0 111.8v288.4C0 426.6 21.4 448 47.8 448h288.4c26.4 0 47.8-21.4 47.8-47.8V111.8c0-26.4-21.4-47.8-47.8-47.8zM304 264c0 8.8-7.2 16-16 16h-72v72c0 8.8-7.2 16-16 16h-16c-8.8 0-16-7.2-16-16v-72H96c-8.8 0-16-7.2-16-16v-16c0-8.8 7.2-16 16-16h72v-72c0-8.8 7.2-16 16-16h16c8.8 0 16 7.2 16 16v72h72c8.8 0 16 7.2 16 16v16zm272-136.5v256.9c0 25.5-29.1 40.4-50.4 25.8L416 334.7V177.3l109.6-75.5c21.3-14.7 50.4.3 50.4 25.7z"></path>
  </symbol>
  <symbol id="video-slash" viewBox="0 0 640 512">
    <path d="M396.2 112c2 0 3.2.6 3.8 1.1v114.1l48 37.5v-38l112-69.8v195.4l47 36.8c.2-1.6 1-2.9 1-4.6v-257C608 109 592.5 96 575.9 96c-6.2 0-12.5 1.8-18.2 5.7L448 170.1v-58.3c0-26.4-23.2-47.8-51.8-47.8H191.3l61.4 48h143.5zM634 471L479.5 350.2 400 288.1 115.6 65.7l-2.2-1.7L36 3.5C29.1-2 19-.9 13.5 6l-10 12.5C-2 25.4-.9 35.5 6 41l44.3 34.6 39 30.5L604 508.5c6.9 5.5 17 4.4 22.5-2.5l10-12.5c5.5-6.9 4.4-17-2.5-22.5zM83.8 400c-2 0-3.2-.6-3.8-1.1V159.8l-48-37.5v277.9c0 26.4 23.2 47.8 51.8 47.8h312.4c13.8 0 26.3-5.1 35.6-13.2L387.3 400H83.8z"></path>
  </symbol>
  <symbol id="plane" viewBox="0 0 576 512">
    <path d="M239.57 48l100.57 176H456c26.03 0 62.87 19.73 71.1 32-8.23 12.27-45.07 32-71.1 32H340.14L239.57 464h-37.14l50.29-176H136l-36 48H58.68L82 256l-23.32-80H100l36 48h116.72L202.43 48h37.14m18.57-48h-98.13c-10.63 0-18.3 10.17-15.38 20.39L189.08 176H160l-31.2-41.6c-3.02-4.03-7.77-6.4-12.8-6.4H16.01C5.6 128-2.04 137.78.49 147.88L32 256 .49 364.12C-2.04 374.22 5.6 384 16.01 384H116c5.04 0 9.78-2.37 12.8-6.4L160 336h29.08l-44.46 155.6C141.7 501.82 149.37 512 160 512h98.13c5.74 0 11.04-3.08 13.89-8.06L368 336h88c44.18 0 120-35.82 120-80 0-44.19-75.82-80-120-80h-88L272.03 8.06A15.998 15.998 0 0 0 258.14 0z"></path>
  </symbol>
  <symbol id="presentation" viewBox="0 0 576 512">
    <path d="M560 0H16C7.16 0 0 7.16 0 16v16c0 8.84 7.16 16 16 16h16v272c0 17.67 14.33 32 32 32h200v43.72l-77.65 77.65c-6.25 6.25-6.25 16.38 0 22.63l11.31 11.31c6.25 6.25 16.38 6.25 22.63 0L288 439.6l67.72 67.72c6.25 6.25 16.38 6.25 22.63 0l11.3-11.32c6.25-6.25 6.25-16.38 0-22.63L312 395.72V352h200c17.67 0 32-14.33 32-32V48h16c8.84 0 16-7.16 16-16V16c0-8.84-7.16-16-16-16zm-64 304H80V48h416v256z"></path>
  </symbol>
  <symbol id="expand" viewBox="0 0 448 512">
    <path d="M0 180V56c0-13.3 10.7-24 24-24h124c6.6 0 12 5.4 12 12v24c0 6.6-5.4 12-12 12H48v100c0 6.6-5.4 12-12 12H12c-6.6 0-12-5.4-12-12zM288 44v24c0 6.6 5.4 12 12 12h100v100c0 6.6 5.4 12 12 12h24c6.6 0 12-5.4 12-12V56c0-13.3-10.7-24-24-24H300c-6.6 0-12 5.4-12 12zm148 276h-24c-6.6 0-12 5.4-12 12v100H300c-6.6 0-12 5.4-12 12v24c0 6.6 5.4 12 12 12h124c13.3 0 24-10.7 24-24V332c0-6.6-5.4-12-12-12zM160 468v-24c0-6.6-5.4-12-12-12H48V332c0-6.6-5.4-12-12-12H12c-6.6 0-12 5.4-12 12v124c0 13.3 10.7 24 24 24h124c6.6 0 12-5.4 12-12z"></path>
  </symbol>
  <symbol id="spinner" viewBox="0 0 512 512">
    <path d="M296 48c0 22.091-17.909 40-40 40s-40-17.909-40-40 17.909-40 40-40 40 17.909 40 40zm-40 376c-22.091 0-40 17.909-40 40s17.909 40 40 40 40-17.909 40-40-17.909-40-40-40zm248-168c0-22.091-17.909-40-40-40s-40 17.909-40 40 17.909 40 40 40 40-17.909 40-40zm-416 0c0-22.091-17.909-40-40-40S8 233.909 8 256s17.909 40 40 40 40-17.909 40-40zm20.922-187.078c-22.091 0-40 17.909-40 40s17.909 40 40 40 40-17.909 40-40c0-22.092-17.909-40-40-40zm294.156 294.156c-22.091 0-40 17.909-40 40s17.909 40 40 40c22.092 0 40-17.909 40-40s-17.908-40-40-40zm-294.156 0c-22.091 0-40 17.909-40 40s17.909 40 40 40 40-17.909 40-40-17.909-40-40-40z"></path>
  </symbol>
  <symbol id="home" viewBox="0 0 576 512">
    <path d="M570.24 247.41L512 199.52V104a8 8 0 0 0-8-8h-32a8 8 0 0 0-7.95 7.88v56.22L323.87 45a56.06 56.06 0 0 0-71.74 0L5.76 247.41a16 16 0 0 0-2 22.54L14 282.25a16 16 0 0 0 22.53 2L64 261.69V448a32.09 32.09 0 0 0 32 32h128a32.09 32.09 0 0 0 32-32V344h64v104a32.09 32.09 0 0 0 32 32h128a32.07 32.07 0 0 0 32-31.76V261.67l27.53 22.62a16 16 0 0 0 22.53-2L572.29 270a16 16 0 0 0-2.05-22.59zM463.85 432H368V328a32.09 32.09 0 0 0-32-32h-96a32.09 32.09 0 0 0-32 32v104h-96V222.27L288 77.65l176 144.56z"></path>
  </symbol>
  <symbol id="clock" viewBox="0 0 512 512">
    <path d="M256 8C119 8 8 119 8 256s111 248 248 248 248-111 248-248S393 8 256 8zm0 448c-110.5 0-200-89.5-200-200S145.5 56 256 56s200 89.5 200 200-89.5 200-200 200zm61.8-104.4l-84.9-61.7c-3.1-2.3-4.9-5.9-4.9-9.7V116c0-6.6 5.4-12 12-12h32c6.6 0 12 5.4 12 12v141.7l66.8 48.6c5.4 3.9 6.5 11.4 2.6 16.8L334.6 349c-3.9 5.3-11.4 6.5-16.8 2.6z"></path>
  </symbol>
  <symbol id="bookmark" viewBox="0 0 384 512">
    <path d="M336 0H48C21.49 0 0 21.49 0 48v464l192-112 192 112V48c0-26.51-21.49-48-48-48zm0 428.43l-144-84-144 84V54a6 6 0 0 1 6-6h276c3.314 0 6 2.683 6 5.996V428.43z"></path>
  </symbol>
  <symbol id="bookmark-solid" viewBox="0 0 384 512">
    <path d="M0 512V48C0 21.49 21.49 0 48 0h288c26.51 0 48 21.49 48 48v464L192 400 0 512z"></path>
  </symbol>
  <symbol id="tag" viewBox="0 0 512 512">
    <path d="M497.941 225.941L286.059 14.059A48 48 0 0 0 252.118 0H48C21.49 0 0 21.49 0 48v204.118a47.998 47.998 0 0 0 14.059 33.941l211.882 211.882c18.745 18.745 49.137 18.746 67.882 0l204.118-204.118c18.745-18.745 18.745-49.137 0-67.882zM259.886 463.996L48 252.118V48h204.118L464 259.882 259.886 463.996zM192 144c0 26.51-21.49 48-48 48s-48-21.49-48-48 21.49-48 48-48 48 21.49 48 48z"></path>
  </symbol>
  <symbol id="tag-solid" viewBox="0 0 512 512">
    <path d="M0 252.118V48C0 21.49 21.49 0 48 0h204.118a48 48 0 0 1 33.941 14.059l211.882 211.882c18.745 18.745 18.745 49.137 0 67.882L293.823 497.941c-18.745 18.745-49.137 18.745-67.882 0L14.059 286.059A48 48 0 0 1 0 252.118zM112 64c-26.51 0-48 21.49-48 48s21.49 48 48 48 48-21.49 48-48-21.49-48-48-48z"></path>
  </symbol>
  <symbol id="list" viewBox="0 0 512 512">
    <path d="M80 48H16A16 16 0 0 0 0 64v64a16 16 0 0 0 16 16h64a16 16 0 0 0 16-16V64a16 16 0 0 0-16-16zm0 160H16a16 16 0 0 0-16 16v64a16 16 0 0 0 16 16h64a16 16 0 0 0 16-16v-64a16 16 0 0 0-16-16zm0 160H16a16 16 0 0 0-16 16v64a16 16 0 0 0 16 16h64a16 16 0 0 0 16-16v-64a16 16 0 0 0-16-16zm416-136H176a16 16 0 0 0-16 16v16a16 16 0 0 0 16 16h320a16 16 0 0 0 16-16v-16a16 16 0 0 0-16-16zm0 160H176a16 16 0 0 0-16 16v16a16 16 0 0 0 16 16h320a16 16 0 0 0 16-16v-16a16 16 0 0 0-16-16zm0-320H176a16 16 0 0 0-16 16v16a16 16 0 0 0 16 16h320a16 16 0 0 0 16-16V88a16 16 0 0 0-16-16z"></path>
  </symbol>
  <symbol id="th" viewBox="0 0 512 512">
    <path d="M464 32H48C21.5 32 0 53.5 0 80v352c0 26.5 21.5 48 48 48h416c26.5 0 48-21.5 48-48V80c0-26.5-21.5-48-48-48zM197.3 72h117.3v96H197.3zm0 136h117.3v96H197.3zm-40 232H52c-6.6 0-12-5.4-12-12v-84h117.3zm0-136H40v-96h117.3zm0-136H40V84c0-6.6 5.4-12 12-12h105.3zm157.4 272H197.3v-96h117.3v96zm157.3 0H354.7v-96H472zm0-136H354.7v-96H472zm0-136H354.7V72H472z"></path>
  </symbol>
  <symbol id="share-square" viewBox="0 0 576 512">
    <path d="M561.938 158.06L417.94 14.092C387.926-15.922 336 5.097 336 48.032v57.198c-42.45 1.88-84.03 6.55-120.76 17.99-35.17 10.95-63.07 27.58-82.91 49.42C108.22 199.2 96 232.6 96 271.94c0 61.697 33.178 112.455 84.87 144.76 37.546 23.508 85.248-12.651 71.02-55.74-15.515-47.119-17.156-70.923 84.11-78.76V336c0 42.993 51.968 63.913 81.94 33.94l143.998-144c18.75-18.74 18.75-49.14 0-67.88zM384 336V232.16C255.309 234.082 166.492 255.35 206.31 376 176.79 357.55 144 324.08 144 271.94c0-109.334 129.14-118.947 240-119.85V48l144 144-144 144zm24.74 84.493a82.658 82.658 0 0 0 20.974-9.303c7.976-4.952 18.286.826 18.286 10.214V464c0 26.51-21.49 48-48 48H48c-26.51 0-48-21.49-48-48V112c0-26.51 21.49-48 48-48h132c6.627 0 12 5.373 12 12v4.486c0 4.917-2.987 9.369-7.569 11.152-13.702 5.331-26.396 11.537-38.05 18.585a12.138 12.138 0 0 1-6.28 1.777H54a6 6 0 0 0-6 6v340a6 6 0 0 0 6 6h340a6 6 0 0 0 6-6v-25.966c0-5.37 3.579-10.059 8.74-11.541z"></path>
  </symbol>
  <symbol id="share-alt-square" viewBox="0 0 448 512">
    <path d="M400 32H48C21.49 32 0 53.49 0 80v352c0 26.51 21.49 48 48 48h352c26.51 0 48-21.49 48-48V80c0-26.51-21.49-48-48-48zm-6 400H54a6 6 0 0 1-6-6V86a6 6 0 0 1 6-6h340a6 6 0 0 1 6 6v340a6 6 0 0 1-6 6zm-58-96c0 26.51-21.49 48-48 48s-48-21.49-48-48c0-2.007.138-3.981.377-5.923l-69.131-34.565A47.768 47.768 0 0 1 144 304c-26.51 0-48-21.49-48-48s21.49-48 48-48a47.762 47.762 0 0 1 27.246 8.489l69.131-34.565A48.461 48.461 0 0 1 240 176c0-26.51 21.49-48 48-48s48 21.49 48 48-21.49 48-48 48c-12.941 0-24.677-5.131-33.31-13.457l-64.54 32.27a47.935 47.935 0 0 1 0 26.374l64.54 32.27C263.323 293.13 275.059 288 288 288c26.51 0 48 21.49 48 48z"></path>
  </symbol>
  <symbol id="play" viewBox="0 0 448 512">
    <path d="M424.4 214.7L72.4 6.6C43.8-10.3 0 6.1 0 47.9V464c0 37.5 40.7 60.1 72.4 41.3l352-208c31.4-18.5 31.5-64.1 0-82.6zM48 453.5v-395c0-4.6 5.1-7.5 9.1-5.2l334.2 197.5c3.9 2.3 3.9 8 0 10.3L57.1 458.7c-4 2.3-9.1-.6-9.1-5.2z"></path>
  </symbol>
  <symbol id="play-circle" viewBox="0 0 512 512">
    <path d="M371.7 238l-176-107c-15.8-8.8-35.7 2.5-35.7 21v208c0 18.4 19.8 29.8 35.7 21l176-101c16.4-9.1 16.4-32.8 0-42zM504 256C504 119 393 8 256 8S8 119 8 256s111 248 248 248 248-111 248-248zm-448 0c0-110.5 89.5-200 200-200s200 89.5 200 200-89.5 200-200 200S56 366.5 56 256z"></path>
  </symbol>
  <symbol id="user-friends" viewBox="0 0 640 512">
    <path d="M192 256c61.9 0 112-50.1 112-112S253.9 32 192 32 80 82.1 80 144s50.1 112 112 112zm76.8 32h-8.3c-20.8 10-43.9 16-68.5 16s-47.6-6-68.5-16h-8.3C51.6 288 0 339.6 0 403.2V432c0 26.5 21.5 48 48 48h288c26.5 0 48-21.5 48-48v-28.8c0-63.6-51.6-115.2-115.2-115.2zM480 256c53 0 96-43 96-96s-43-96-96-96-96 43-96 96 43 96 96 96zm48 32h-3.8c-13.9 4.8-28.6 8-44.2 8s-30.3-3.2-44.2-8H432c-20.4 0-39.2 5.9-55.7 15.4 24.4 26.3 39.7 61.2 39.7 99.8v38.4c0 2.2-.5 4.3-.6 6.4H592c26.5 0 48-21.5 48-48 0-61.9-50.1-112-112-112z"></path>
  </symbol>
  <symbol id="eye" viewBox="0 0 576 512">
    <path d="M288 144a110.94 110.94 0 0 0-31.24 5 55.4 55.4 0 0 1 7.24 27 56 56 0 0 1-56 56 55.4 55.4 0 0 1-27-7.24A111.71 111.71 0 1 0 288 144zm284.52 97.4C518.29 135.59 410.93 64 288 64S57.68 135.64 3.48 241.41a32.35 32.35 0 0 0 0 29.19C57.71 376.41 165.07 448 288 448s230.32-71.64 284.52-177.41a32.35 32.35 0 0 0 0-29.19zM288 400c-98.65 0-189.09-55-237.93-144C98.91 167 189.34 112 288 112s189.09 55 237.93 144C477.1 345 386.66 400 288 400z"></path>
  </symbol>
  <symbol id="eye-slash" viewBox="0 0 640 512">
    <path d="M634 471L36 3.51A16 16 0 0 0 13.51 6l-10 12.49A16 16 0 0 0 6 41l598 467.49a16 16 0 0 0 22.49-2.49l10-12.49A16 16 0 0 0 634 471zM296.79 146.47l134.79 105.38C429.36 191.91 380.48 144 320 144a112.26 112.26 0 0 0-23.21 2.47zm46.42 219.07L208.42 260.16C210.65 320.09 259.53 368 320 368a113 113 0 0 0 23.21-2.46zM320 112c98.65 0 189.09 55 237.93 144a285.53 285.53 0 0 1-44 60.2l37.74 29.5a333.7 333.7 0 0 0 52.9-75.11 32.35 32.35 0 0 0 0-29.19C550.29 135.59 442.93 64 320 64c-36.7 0-71.71 7-104.63 18.81l46.41 36.29c18.94-4.3 38.34-7.1 58.22-7.1zm0 288c-98.65 0-189.08-55-237.93-144a285.47 285.47 0 0 1 44.05-60.19l-37.74-29.5a333.6 333.6 0 0 0-52.89 75.1 32.35 32.35 0 0 0 0 29.19C89.72 376.41 197.08 448 320 448c36.7 0 71.71-7.05 104.63-18.81l-46.41-36.28C359.28 397.2 339.89 400 320 400z"></path>
  </symbol>
  <symbol id="camera" viewBox="0 0 512 512">
    <path d="M512 144v288c0 26.5-21.5 48-48 48H48c-26.5 0-48-21.5-48-48V144c0-26.5 21.5-48 48-48h88l12.3-32.9c7-18.7 24.9-31.1 44.9-31.1h125.5c20 0 37.9 12.4 44.9 31.1L376 96h88c26.5 0 48 21.5 48 48zM376 288c0-66.2-53.8-120-120-120s-120 53.8-120 120 53.8 120 120 120 120-53.8 120-120zm-32 0c0 48.5-39.5 88-88 88s-88-39.5-88-88 39.5-88 88-88 88 39.5 88 88z"></path>
  </symbol>
  <symbol id="lock-alt" viewBox="0 0 448 512">
    <path d="M224 412c-15.5 0-28-12.5-28-28v-64c0-15.5 12.5-28 28-28s28 12.5 28 28v64c0 15.5-12.5 28-28 28zm224-172v224c0 26.5-21.5 48-48 48H48c-26.5 0-48-21.5-48-48V240c0-26.5 21.5-48 48-48h32v-48C80 64.5 144.8-.2 224.4 0 304 .2 368 65.8 368 145.4V192h32c26.5 0 48 21.5 48 48zm-320-48h192v-48c0-52.9-43.1-96-96-96s-96 43.1-96 96v48zm272 48H48v224h352V240z"></path>
  </symbol>
  <symbol id="thumbtack" viewBox="0 0 384 512">
    <path d="M306.5 186.6l-5.7-42.6H328c13.2 0 24-10.8 24-24V24c0-13.2-10.8-24-24-24H56C42.8 0 32 10.8 32 24v96c0 13.2 10.8 24 24 24h27.2l-5.7 42.6C29.6 219.4 0 270.7 0 328c0 13.2 10.8 24 24 24h144v104c0 .9.1 1.7.4 2.5l16 48c2.4 7.3 12.8 7.3 15.2 0l16-48c.3-.8.4-1.7.4-2.5V352h144c13.2 0 24-10.8 24-24 0-57.3-29.6-108.6-77.5-141.4zM50.5 304c8.3-38.5 35.6-70 71.5-87.8L138 96H80V48h224v48h-58l16 120.2c35.8 17.8 63.2 49.4 71.5 87.8z"></path>
  </symbol>
  <symbol id="hand-point-down" viewBox="0 0 384 512">
    <path d="M91.826 467.2V317.966c-8.248 5.841-16.558 10.57-24.918 14.153C35.098 345.752-.014 322.222 0 288c.008-18.616 10.897-32.203 29.092-40 28.286-12.122 64.329-78.648 77.323-107.534 7.956-17.857 25.479-28.453 43.845-28.464l.001-.002h171.526c11.812 0 21.897 8.596 23.703 20.269 7.25 46.837 38.483 61.76 38.315 123.731-.007 2.724.195 13.254.195 16 0 50.654-22.122 81.574-71.263 72.6-9.297 18.597-39.486 30.738-62.315 16.45-21.177 24.645-53.896 22.639-70.944 6.299V467.2c0 24.15-20.201 44.8-43.826 44.8-23.283 0-43.826-21.35-43.826-44.8zM112 72V24c0-13.255 10.745-24 24-24h192c13.255 0 24 10.745 24 24v48c0 13.255-10.745 24-24 24H136c-13.255 0-24-10.745-24-24zm212-24c0-11.046-8.954-20-20-20s-20 8.954-20 20 8.954 20 20 20 20-8.954 20-20z"></path>
  </symbol>
  <symbol id="history" viewBox="0 0 512 512">
    <path d="M504 255.532c.252 136.64-111.182 248.372-247.822 248.468-64.014.045-122.373-24.163-166.394-63.942-5.097-4.606-5.3-12.543-.443-17.4l16.96-16.96c4.529-4.529 11.776-4.659 16.555-.395C158.208 436.843 204.848 456 256 456c110.549 0 200-89.468 200-200 0-110.549-89.468-200-200-200-55.52 0-105.708 22.574-141.923 59.043l49.091 48.413c7.641 7.535 2.305 20.544-8.426 20.544H26.412c-6.627 0-12-5.373-12-12V45.443c0-10.651 12.843-16.023 20.426-8.544l45.097 44.474C124.866 36.067 187.15 8 256 8c136.811 0 247.747 110.781 248 247.532zm-167.058 90.173l14.116-19.409c3.898-5.36 2.713-12.865-2.647-16.763L280 259.778V116c0-6.627-5.373-12-12-12h-24c-6.627 0-12 5.373-12 12v168.222l88.179 64.13c5.36 3.897 12.865 2.712 16.763-2.647z"></path>
  </symbol>
  <symbol id="globe" viewBox="0 0 496 512">
    <path d="M248 8C111 8 0 119 0 256s111 248 248 248 248-111 248-248S385 8 248 8zm179.3 160h-67.2c-6.7-36.5-17.5-68.8-31.2-94.7 42.9 19 77.7 52.7 98.4 94.7zM248 56c18.6 0 48.6 41.2 63.2 112H184.8C199.4 97.2 229.4 56 248 56zM48 256c0-13.7 1.4-27.1 4-40h77.7c-1 13.1-1.7 26.3-1.7 40s.7 26.9 1.7 40H52c-2.6-12.9-4-26.3-4-40zm20.7 88h67.2c6.7 36.5 17.5 68.8 31.2 94.7-42.9-19-77.7-52.7-98.4-94.7zm67.2-176H68.7c20.7-42 55.5-75.7 98.4-94.7-13.7 25.9-24.5 58.2-31.2 94.7zM248 456c-18.6 0-48.6-41.2-63.2-112h126.5c-14.7 70.8-44.7 112-63.3 112zm70.1-160H177.9c-1.1-12.8-1.9-26-1.9-40s.8-27.2 1.9-40h140.3c1.1 12.8 1.9 26 1.9 40s-.9 27.2-2 40zm10.8 142.7c13.7-25.9 24.4-58.2 31.2-94.7h67.2c-20.7 42-55.5 75.7-98.4 94.7zM366.3 296c1-13.1 1.7-26.3 1.7-40s-.7-26.9-1.7-40H444c2.6 12.9 4 26.3 4 40s-1.4 27.1-4 40h-77.7z"></path>
  </symbol>
  <symbol id="link" viewBox="0 0 512 512">
    <path d="M314.222 197.78c51.091 51.091 54.377 132.287 9.75 187.16-6.242 7.73-2.784 3.865-84.94 86.02-54.696 54.696-143.266 54.745-197.99 0-54.711-54.69-54.734-143.255 0-197.99 32.773-32.773 51.835-51.899 63.409-63.457 7.463-7.452 20.331-2.354 20.486 8.192a173.31 173.31 0 0 0 4.746 37.828c.966 4.029-.272 8.269-3.202 11.198L80.632 312.57c-32.755 32.775-32.887 85.892 0 118.8 32.775 32.755 85.892 32.887 118.8 0l75.19-75.2c32.718-32.725 32.777-86.013 0-118.79a83.722 83.722 0 0 0-22.814-16.229c-4.623-2.233-7.182-7.25-6.561-12.346 1.356-11.122 6.296-21.885 14.815-30.405l4.375-4.375c3.625-3.626 9.177-4.594 13.76-2.294 12.999 6.524 25.187 15.211 36.025 26.049zM470.958 41.04c-54.724-54.745-143.294-54.696-197.99 0-82.156 82.156-78.698 78.29-84.94 86.02-44.627 54.873-41.341 136.069 9.75 187.16 10.838 10.838 23.026 19.525 36.025 26.049 4.582 2.3 10.134 1.331 13.76-2.294l4.375-4.375c8.52-8.519 13.459-19.283 14.815-30.405.621-5.096-1.938-10.113-6.561-12.346a83.706 83.706 0 0 1-22.814-16.229c-32.777-32.777-32.718-86.065 0-118.79l75.19-75.2c32.908-32.887 86.025-32.755 118.8 0 32.887 32.908 32.755 86.025 0 118.8l-45.848 45.84c-2.93 2.929-4.168 7.169-3.202 11.198a173.31 173.31 0 0 1 4.746 37.828c.155 10.546 13.023 15.644 20.486 8.192 11.574-11.558 30.636-30.684 63.409-63.457 54.733-54.735 54.71-143.3-.001-197.991z"></path>
  </symbol>
  <symbol id="language" viewBox="0 0 640 512">
    <path d="M160.3 203.8h-.5s-4.3 20.9-7.8 33l-11 37.3h37.9l-10.7-37.3c-3.6-12.1-7.9-33-7.9-33zM616 96H24c-13.3 0-24 10.7-24 24v272c0 13.3 10.7 24 24 24h592c13.3 0 24-10.7 24-24V120c0-13.3-10.7-24-24-24zM233.2 352h-22.6a12 12 0 0 1-11.5-8.6l-9.3-31.7h-59.9l-9.1 31.6c-1.5 5.1-6.2 8.7-11.5 8.7H86.8c-8.2 0-14-8.1-11.4-15.9l57.1-168c1.7-4.9 6.2-8.1 11.4-8.1h32.2c5.1 0 9.7 3.3 11.4 8.1l57.1 168c2.6 7.8-3.2 15.9-11.4 15.9zM600 376H320V136h280zM372 228h110.8c-6.3 12.8-15.1 25.9-25.9 38.5-6.6-7.8-12.8-15.8-18.3-24-3.5-5.3-10.6-6.9-16.1-3.6l-13.7 8.2c-5.9 3.5-7.6 11.3-3.8 17 6.5 9.7 14.4 20.1 23.5 30.6-9 7.7-18.6 14.8-28.7 21.2-5.4 3.4-7.1 10.5-3.9 16l7.9 13.9c3.4 5.9 11 7.9 16.8 4.2 12.5-7.9 24.6-17 36-26.8 10.7 9.6 22.3 18.6 34.6 26.6 5.8 3.7 13.6 1.9 17-4.1l8-13.9c3.1-5.5 1.5-12.5-3.8-16-9.2-6-18.4-13.1-27.2-20.9 1.5-1.7 2.9-3.3 4.3-5 17.1-20.6 29.6-41.7 36.8-62H540c6.6 0 12-5.4 12-12v-16c0-6.6-5.4-12-12-12h-64v-16c0-6.6-5.4-12-12-12h-16c-6.6 0-12 5.4-12 12v16h-64c-6.6 0-12 5.4-12 12v16c0 6.7 5.4 12.1 12 12.1z"></path>
  </symbol>
  <symbol id="bell" viewBox="0 0 448 512">
    <path d="M439.39 362.29c-19.32-20.76-55.47-51.99-55.47-154.29 0-77.7-54.48-139.9-127.94-155.16V32c0-17.67-14.32-32-31.98-32s-31.98 14.33-31.98 32v20.84C118.56 68.1 64.08 130.3 64.08 208c0 102.3-36.15 133.53-55.47 154.29-6 6.45-8.66 14.16-8.61 21.71.11 16.4 12.98 32 32.1 32h383.8c19.12 0 32-15.6 32.1-32 .05-7.55-2.61-15.27-8.61-21.71zM67.53 368c21.22-27.97 44.42-74.33 44.53-159.42 0-.2-.06-.38-.06-.58 0-61.86 50.14-112 112-112s112 50.14 112 112c0 .2-.06.38-.06.58.11 85.1 23.31 131.46 44.53 159.42H67.53zM224 512c35.32 0 63.97-28.65 63.97-64H160.03c0 35.35 28.65 64 63.97 64z"></path>
  </symbol>
  <symbol id="bell-solid" viewBox="0 0 448 512">
    <path d="M224 512c35.32 0 63.97-28.65 63.97-64H160.03c0 35.35 28.65 64 63.97 64zm215.39-149.71c-19.32-20.76-55.47-51.99-55.47-154.29 0-77.7-54.48-139.9-127.94-155.16V32c0-17.67-14.32-32-31.98-32s-31.98 14.33-31.98 32v20.84C118.56 68.1 64.08 130.3 64.08 208c0 102.3-36.15 133.53-55.47 154.29-6 6.45-8.66 14.16-8.61 21.71.11 16.4 12.98 32 32.1 32h383.8c19.12 0 32-15.6 32.1-32 .05-7.55-2.61-15.27-8.61-21.71z"></path>
  </symbol>
  <symbol id="bell-duotone" viewBox="0 0 448 512">
    <path d="M448 384c-.1 16.4-13 32-32.1 32H32.08C13 416 .09 400.4 0 384a31.25 31.25 0 0 1 8.61-21.71c19.32-20.76 55.47-52 55.47-154.29 0-77.7 54.48-139.9 127.94-155.16V32a32 32 0 1 1 64 0v20.84C329.42 68.1 383.9 130.3 383.9 208c0 102.3 36.15 133.53 55.47 154.29A31.27 31.27 0 0 1 448 384z" class="fa-secondary" fill="var(--fa-secondary-color)"></path><path d="M160 448h128a64 64 0 0 1-128 0z" class="fa-primary" fill="var(--fa-primary-color)"></path>
  </symbol>
  <symbol id="bell-slash" viewBox="0 0 640 512">
    <path d="M633.99 471.02L36 3.51C29.1-2.01 19.03-.9 13.51 6l-10 12.49C-2.02 25.39-.9 35.46 6 40.98l598 467.51c6.9 5.52 16.96 4.4 22.49-2.49l10-12.49c5.52-6.9 4.41-16.97-2.5-22.49zM163.53 368c16.71-22.03 34.48-55.8 41.4-110.58l-45.47-35.55c-3.27 90.73-36.47 120.68-54.84 140.42-6 6.45-8.66 14.16-8.61 21.71.11 16.4 12.98 32 32.1 32h279.66l-61.4-48H163.53zM320 96c61.86 0 112 50.14 112 112 0 .2-.06.38-.06.58.02 16.84 1.16 31.77 2.79 45.73l59.53 46.54c-8.31-22.13-14.34-51.49-14.34-92.85 0-77.7-54.48-139.9-127.94-155.16V32c0-17.67-14.32-32-31.98-32s-31.98 14.33-31.98 32v20.84c-26.02 5.41-49.45 16.94-69.13 32.72l38.17 29.84C275 103.18 296.65 96 320 96zm0 416c35.32 0 63.97-28.65 63.97-64H256.03c0 35.35 28.65 64 63.97 64z"></path>
  </symbol>
  <symbol id="bell-on" viewBox="0 0 640 512">
    <path d="M521 100.8c4.125 0 8.25-1.123 12-3.244l55.38-31.94c11.25-6.737 14.88-21.21 8.375-32.44c-6.5-11.35-21-15.35-32.38-8.982L509 56.14c-9.5 5.365-14 16.47-11.25 26.95C500.6 93.57 510.1 100.8 521 100.8zM112 192.6c0-13.22-10.75-23.95-24-23.95h-64c-13.25 0-24 10.73-24 23.95s10.75 23.95 24 23.95h64C101.2 216.6 112 205.8 112 192.6zM51.62 65.62l55.5 31.94c7.375 4.491 16.63 4.616 24.25 .3742C138.9 93.57 143.5 85.58 143.5 76.97C143.4 68.24 138.6 60.26 131.1 56.14L75.62 24.2C68.25 19.71 59 19.59 51.38 23.83C43.88 28.19 39.25 36.18 39.25 44.79C39.38 53.52 44.12 61.5 51.62 65.62zM616 168.7h-64c-13.25 0-24 10.73-24 23.95s10.75 23.95 24 23.95h64c13.25 0 24-10.73 24-23.95S629.3 168.7 616 168.7zM479.9 208.6c0-77.6-54.38-139.6-127.9-154.8V32.94c.375-11.6-5.75-22.58-15.75-28.44c-10-5.988-22.5-5.988-32.5 0C293.6 10.35 287.6 21.33 288 32.94v20.83C214.5 68.99 160.1 130.1 160.1 208.6c0 102.1-36.12 133-55.5 153.7C99 368.2 96 375.1 96 384.1c.125 16.34 13 31.98 32.13 31.98h383.8c19.12 0 32-15.64 32.13-31.98c0-8.109-3-15.88-8.625-21.74C516 341.6 479.9 310.6 479.9 208.6zM163.5 368.3C184.8 340.3 208 294.1 208 209.2V208.6C208 146.8 258.1 96.81 320 96.81s112 50.03 112 111.8v.6238c0 84.96 23.25 131.1 44.5 159.1H163.5zM319.1 512C355.4 512 384 483.3 384 448H256C256 483.3 284.6 512 319.1 512z"></path>
  </symbol>
  <symbol id="cog" viewBox="0 0 512 512">
    <path d="M452.515 237l31.843-18.382c9.426-5.441 13.996-16.542 11.177-27.054-11.404-42.531-33.842-80.547-64.058-110.797-7.68-7.688-19.575-9.246-28.985-3.811l-31.785 18.358a196.276 196.276 0 0 0-32.899-19.02V39.541a24.016 24.016 0 0 0-17.842-23.206c-41.761-11.107-86.117-11.121-127.93-.001-10.519 2.798-17.844 12.321-17.844 23.206v36.753a196.276 196.276 0 0 0-32.899 19.02l-31.785-18.358c-9.41-5.435-21.305-3.877-28.985 3.811-30.216 30.25-52.654 68.265-64.058 110.797-2.819 10.512 1.751 21.613 11.177 27.054L59.485 237a197.715 197.715 0 0 0 0 37.999l-31.843 18.382c-9.426 5.441-13.996 16.542-11.177 27.054 11.404 42.531 33.842 80.547 64.058 110.797 7.68 7.688 19.575 9.246 28.985 3.811l31.785-18.358a196.202 196.202 0 0 0 32.899 19.019v36.753a24.016 24.016 0 0 0 17.842 23.206c41.761 11.107 86.117 11.122 127.93.001 10.519-2.798 17.844-12.321 17.844-23.206v-36.753a196.34 196.34 0 0 0 32.899-19.019l31.785 18.358c9.41 5.435 21.305 3.877 28.985-3.811 30.216-30.25 52.654-68.266 64.058-110.797 2.819-10.512-1.751-21.613-11.177-27.054L452.515 275c1.22-12.65 1.22-25.35 0-38zm-52.679 63.019l43.819 25.289a200.138 200.138 0 0 1-33.849 58.528l-43.829-25.309c-31.984 27.397-36.659 30.077-76.168 44.029v50.599a200.917 200.917 0 0 1-67.618 0v-50.599c-39.504-13.95-44.196-16.642-76.168-44.029l-43.829 25.309a200.15 200.15 0 0 1-33.849-58.528l43.819-25.289c-7.63-41.299-7.634-46.719 0-88.038l-43.819-25.289c7.85-21.229 19.31-41.049 33.849-58.529l43.829 25.309c31.984-27.397 36.66-30.078 76.168-44.029V58.845a200.917 200.917 0 0 1 67.618 0v50.599c39.504 13.95 44.196 16.642 76.168 44.029l43.829-25.309a200.143 200.143 0 0 1 33.849 58.529l-43.819 25.289c7.631 41.3 7.634 46.718 0 88.037zM256 160c-52.935 0-96 43.065-96 96s43.065 96 96 96 96-43.065 96-96-43.065-96-96-96zm0 144c-26.468 0-48-21.532-48-48 0-26.467 21.532-48 48-48s48 21.533 48 48c0 26.468-21.532 48-48 48z"></path>
  </symbol>
  <symbol id="cog-duotone" viewBox="0 0 512 512">
    <path d="M487.75 315.6l-42.6-24.6a192.62 192.62 0 0 0 0-70.2l42.6-24.6a12.11 12.11 0 0 0 5.5-14 249.2 249.2 0 0 0-54.7-94.6 12 12 0 0 0-14.8-2.3l-42.6 24.6a188.83 188.83 0 0 0-60.8-35.1V25.7A12 12 0 0 0 311 14a251.43 251.43 0 0 0-109.2 0 12 12 0 0 0-9.4 11.7v49.2a194.59 194.59 0 0 0-60.8 35.1L89.05 85.4a11.88 11.88 0 0 0-14.8 2.3 247.66 247.66 0 0 0-54.7 94.6 12 12 0 0 0 5.5 14l42.6 24.6a192.62 192.62 0 0 0 0 70.2l-42.6 24.6a12.08 12.08 0 0 0-5.5 14 249 249 0 0 0 54.7 94.6 12 12 0 0 0 14.8 2.3l42.6-24.6a188.54 188.54 0 0 0 60.8 35.1v49.2a12 12 0 0 0 9.4 11.7 251.43 251.43 0 0 0 109.2 0 12 12 0 0 0 9.4-11.7v-49.2a194.7 194.7 0 0 0 60.8-35.1l42.6 24.6a11.89 11.89 0 0 0 14.8-2.3 247.52 247.52 0 0 0 54.7-94.6 12.36 12.36 0 0 0-5.6-14.1zm-231.4 36.2a95.9 95.9 0 1 1 95.9-95.9 95.89 95.89 0 0 1-95.9 95.9z" class="fa-secondary" fill="var(--fa-secondary-color)"></path><path d="M256.35 319.8a63.9 63.9 0 1 1 63.9-63.9 63.9 63.9 0 0 1-63.9 63.9z" class="fa-primary" fill="var(--fa-primary-color)"></path>
  </symbol>
  <symbol id="share-alt" viewBox="0 0 448 512">
    <path d="M352 320c-25.6 0-48.9 10-66.1 26.4l-98.3-61.5c5.9-18.8 5.9-39.1 0-57.8l98.3-61.5C303.1 182 326.4 192 352 192c53 0 96-43 96-96S405 0 352 0s-96 43-96 96c0 9.8 1.5 19.6 4.4 28.9l-98.3 61.5C144.9 170 121.6 160 96 160c-53 0-96 43-96 96s43 96 96 96c25.6 0 48.9-10 66.1-26.4l98.3 61.5c-2.9 9.4-4.4 19.1-4.4 28.9 0 53 43 96 96 96s96-43 96-96-43-96-96-96zm0-272c26.5 0 48 21.5 48 48s-21.5 48-48 48-48-21.5-48-48 21.5-48 48-48zM96 304c-26.5 0-48-21.5-48-48s21.5-48 48-48 48 21.5 48 48-21.5 48-48 48zm256 160c-26.5 0-48-21.5-48-48s21.5-48 48-48 48 21.5 48 48-21.5 48-48 48z"></path>
  </symbol>
  <symbol id="share-alt-square" viewBox="0 0 448 512">
    <path d="M400 32H48C21.49 32 0 53.49 0 80v352c0 26.51 21.49 48 48 48h352c26.51 0 48-21.49 48-48V80c0-26.51-21.49-48-48-48zm-6 400H54a6 6 0 0 1-6-6V86a6 6 0 0 1 6-6h340a6 6 0 0 1 6 6v340a6 6 0 0 1-6 6zm-58-96c0 26.51-21.49 48-48 48s-48-21.49-48-48c0-2.007.138-3.981.377-5.923l-69.131-34.565A47.768 47.768 0 0 1 144 304c-26.51 0-48-21.49-48-48s21.49-48 48-48a47.762 47.762 0 0 1 27.246 8.489l69.131-34.565A48.461 48.461 0 0 1 240 176c0-26.51 21.49-48 48-48s48 21.49 48 48-21.49 48-48 48c-12.941 0-24.677-5.131-33.31-13.457l-64.54 32.27a47.935 47.935 0 0 1 0 26.374l64.54 32.27C263.323 293.13 275.059 288 288 288c26.51 0 48 21.49 48 48z"></path>
  </symbol>
  <symbol id="comment-alt" viewBox="0 0 512 512">
    <path d="M448 0H64C28.7 0 0 28.7 0 64v288c0 35.3 28.7 64 64 64h96v84c0 7.1 5.8 12 12 12 2.4 0 4.9-.7 7.1-2.4L304 416h144c35.3 0 64-28.7 64-64V64c0-35.3-28.7-64-64-64zm16 352c0 8.8-7.2 16-16 16H288l-12.8 9.6L208 428v-60H64c-8.8 0-16-7.2-16-16V64c0-8.8 7.2-16 16-16h384c8.8 0 16 7.2 16 16v288z"></path>
  </symbol>
  <symbol id="comment-alt-solid" viewBox="0 0 512 512">
    <path d="M448 0H64C28.7 0 0 28.7 0 64v288c0 35.3 28.7 64 64 64h96v84c0 9.8 11.2 15.5 19.1 9.7L304 416h144c35.3 0 64-28.7 64-64V64c0-35.3-28.7-64-64-64z"></path>
  </symbol>
  <symbol id="comment-alt-lines" viewBox="0 0 512 512">
    <path d="M448 0H64C28.7 0 0 28.7 0 64v288c0 35.3 28.7 64 64 64h96v84c0 7.1 5.8 12 12 12 2.4 0 4.9-.7 7.1-2.4L304 416h144c35.3 0 64-28.7 64-64V64c0-35.3-28.7-64-64-64zm16 352c0 8.8-7.2 16-16 16H288l-12.8 9.6L208 428v-60H64c-8.8 0-16-7.2-16-16V64c0-8.8 7.2-16 16-16h384c8.8 0 16 7.2 16 16v288zm-96-216H144c-8.8 0-16 7.2-16 16v16c0 8.8 7.2 16 16 16h224c8.8 0 16-7.2 16-16v-16c0-8.8-7.2-16-16-16zm-96 96H144c-8.8 0-16 7.2-16 16v16c0 8.8 7.2 16 16 16h128c8.8 0 16-7.2 16-16v-16c0-8.8-7.2-16-16-16z"></path>
  </symbol>
  <symbol id="flag-alt" viewBox="0 0 512 512">
    <path d="M472.5 0c-7 0-14.3 1.5-21.2 4.6-50.5 22.7-87.8 30.3-119.1 30.3C266.1 34.9 227.7.4 151.4.4c-28.4 0-62.2 4.9-104.5 18C44.3 7.9 35.3 0 24 0 10.7 0 0 10.7 0 24v476c0 6.6 5.4 12 12 12h24c6.6 0 12-5.4 12-12V398.1c37.3-11.8 69.6-16.5 98.5-16.5 81.2 0 137.8 34.4 219.1 34.4 35.3 0 75.1-6.5 123.7-25 14-5.4 22.8-17.9 22.8-31.2V33.4C512 13 493.4 0 472.5 0zM464 349.1c-35.3 12.7-67.6 18.9-98.5 18.9-75.5 0-128.5-34.4-219.1-34.4-31.9 0-64.5 4.7-98.5 14.2V68.5C87.7 55 121.7 48.4 151.4 48.4c66.3 0 105.2 34.5 180.8 34.5 40.3 0 82.3-10 131.8-31.5v297.7z"></path>
  </symbol>
  <symbol id="badge-check" viewBox="0 0 512 512">
    <path d="M332.73 178.37c-3.85-3.88-10.11-3.9-13.98-.06l-87.36 86.66-37.88-38.19c-3.84-3.88-10.11-3.9-13.98-.06l-23.4 23.21c-3.88 3.85-3.9 10.11-.06 13.98l68.05 68.6c3.85 3.88 10.11 3.9 13.98.06l117.78-116.83c3.88-3.85 3.9-10.11.06-13.98l-23.21-23.39zM512 256c0-36.5-18.8-68.4-46.7-86.7 6.8-32.9-2.7-68.7-28.3-94.3-25.6-25.7-61.5-35.1-94.3-28.3C324.2 18.7 292.3 0 256 0s-68.3 18.7-86.7 46.7C136.4 39.9 100.6 49.4 75 75c-25.7 25.6-35.1 61.5-28.3 94.3C18.6 187.8 0 219.8 0 256c0 36.3 18.7 68.3 46.7 86.7-6.8 32.9 2.7 68.7 28.3 94.3 25.6 25.7 61.2 35.1 94.3 28.3 18.5 28.1 50.5 46.7 86.7 46.7 36.4 0 68.3-18.8 86.7-46.7 33.1 6.8 68.7-2.7 94.3-28.3 25.7-25.6 35.1-61.5 28.3-94.3 28.1-18.5 46.7-50.5 46.7-86.7zm-108.3 61.3c9.1 19.9 30.3 54.8-.7 85.8-28 28-55.3 14.5-85.8.7-7.7 20.6-17.3 60.2-61.2 60.2-45.3 0-54.7-42.8-61.2-60.2-21.1 9.6-54.9 30.2-85.9-.8-32-32-8.4-68.9-.7-85.8C87.6 309.5 48 299.9 48 256c0-45.3 42.8-54.7 60.3-61.3-9.1-19.9-30.3-54.8.7-85.8 32-32 68.9-8.4 85.8-.7C202.5 87.6 212.1 48 256 48c45.3 0 54.7 42.8 61.2 60.4 19.9-9.1 54.8-30.3 85.8.7 32 32 8.4 68.9.7 85.8 20.6 7.7 60.2 17.3 60.2 61.2 0 45.3-42.8 54.7-60.2 61.2z"></path>
  </symbol>
  <symbol id="badge-check-solid" viewBox="0 0 512 512">
    <path d="M512 256c0-37.7-23.7-69.9-57.1-82.4 14.7-32.4 8.8-71.9-17.9-98.6-26.7-26.7-66.2-32.6-98.6-17.9C325.9 23.7 293.7 0 256 0s-69.9 23.7-82.4 57.1c-32.4-14.7-72-8.8-98.6 17.9-26.7 26.7-32.6 66.2-17.9 98.6C23.7 186.1 0 218.3 0 256s23.7 69.9 57.1 82.4c-14.7 32.4-8.8 72 17.9 98.6 26.6 26.6 66.1 32.7 98.6 17.9 12.5 33.3 44.7 57.1 82.4 57.1s69.9-23.7 82.4-57.1c32.6 14.8 72 8.7 98.6-17.9 26.7-26.7 32.6-66.2 17.9-98.6 33.4-12.5 57.1-44.7 57.1-82.4zm-144.8-44.25L236.16 341.74c-4.31 4.28-11.28 4.25-15.55-.06l-75.72-76.33c-4.28-4.31-4.25-11.28.06-15.56l26.03-25.82c4.31-4.28 11.28-4.25 15.56.06l42.15 42.49 97.2-96.42c4.31-4.28 11.28-4.25 15.55.06l25.82 26.03c4.28 4.32 4.26 11.29-.06 15.56z"></path>
  </symbol>
  <symbol id="user-check" viewBox="0 0 640 512">
    <path d="M637 161.1l-19.1-19.2c-4-4.1-10.6-4.1-14.6 0L500.2 245.6l-47.4-47.7c-4-4.1-10.6-4.1-14.6 0L419 217.1c-4 4.1-4 10.6 0 14.7l73.8 74.3c4 4.1 10.6 4.1 14.6 0L637 175.8c4-4 4-10.6 0-14.7zM224 288c79.5 0 144-64.5 144-144S303.5 0 224 0 80 64.5 80 144s64.5 144 144 144zm0-240c52.9 0 96 43.1 96 96s-43.1 96-96 96-96-43.1-96-96 43.1-96 96-96zm89.6 256c-28.8 0-42.4 16-89.6 16-47.1 0-60.8-16-89.6-16C60.2 304 0 364.2 0 438.4V464c0 26.5 21.5 48 48 48h352c26.5 0 48-21.5 48-48v-25.6c0-74.2-60.2-134.4-134.4-134.4zM400 464H48v-25.6c0-47.6 38.8-86.4 86.4-86.4 14.6 0 38.3 16 89.6 16 51.7 0 74.9-16 89.6-16 47.6 0 86.4 38.8 86.4 86.4V464z"></path>
  </symbol>
  <symbol id="copy" viewBox="0 0 448 512">
    <path d="M433.941 65.941l-51.882-51.882A48 48 0 0 0 348.118 0H176c-26.51 0-48 21.49-48 48v48H48c-26.51 0-48 21.49-48 48v320c0 26.51 21.49 48 48 48h224c26.51 0 48-21.49 48-48v-48h80c26.51 0 48-21.49 48-48V99.882a48 48 0 0 0-14.059-33.941zM266 464H54a6 6 0 0 1-6-6V150a6 6 0 0 1 6-6h74v224c0 26.51 21.49 48 48 48h96v42a6 6 0 0 1-6 6zm128-96H182a6 6 0 0 1-6-6V54a6 6 0 0 1 6-6h106v88c0 13.255 10.745 24 24 24h88v202a6 6 0 0 1-6 6zm6-256h-64V48h9.632c1.591 0 3.117.632 4.243 1.757l48.368 48.368a6 6 0 0 1 1.757 4.243V112z"></path>
  </symbol>
  <symbol id="at" viewBox="0 0 512 512">
    <path d="M504 232C504 95.751 394.053 8 256 8 118.94 8 8 118.919 8 256c0 137.059 110.919 248 248 248 52.926 0 104.681-17.079 147.096-48.321 5.501-4.052 6.423-11.924 2.095-17.211l-15.224-18.597c-4.055-4.954-11.249-5.803-16.428-2.041C339.547 442.517 298.238 456 256 456c-110.28 0-200-89.72-200-200S145.72 56 256 56c109.469 0 200 65.02 200 176 0 63.106-42.478 98.29-83.02 98.29-19.505 0-20.133-12.62-16.366-31.463l28.621-148.557c1.426-7.402-4.245-14.27-11.783-14.27h-39.175a12.005 12.005 0 0 0-11.784 9.735c-1.102 5.723-1.661 8.336-2.28 13.993-11.923-19.548-35.878-31.068-65.202-31.068C183.412 128.66 120 191.149 120 281.53c0 61.159 32.877 102.11 93.18 102.11 29.803 0 61.344-16.833 79.749-42.239 4.145 30.846 28.497 38.01 59.372 38.01C451.467 379.41 504 315.786 504 232zm-273.9 97.35c-28.472 0-45.47-19.458-45.47-52.05 0-57.514 39.56-93.41 74.61-93.41 30.12 0 45.471 21.532 45.471 51.58 0 46.864-33.177 93.88-74.611 93.88z"></path>
  </symbol>
  <symbol id="font-case" viewBox="0 0 640 512">
    <path d="M624 160h-16a16 16 0 0 0-16 16v12.82C570 171.07 542.44 160 512 160a128 128 0 0 0-128 128v32a128 128 0 0 0 128 128c30.44 0 58-11.07 80-28.82V432a16 16 0 0 0 16 16h16a16 16 0 0 0 16-16V176a16 16 0 0 0-16-16zm-32 160a80 80 0 0 1-160 0v-32a80 80 0 0 1 160 0zM212.5 74.35a16 16 0 0 0-15-10.35h-43.03a16 16 0 0 0-15 10.35L1 426.35A16 16 0 0 0 16 448h17.14a16 16 0 0 0 15-10.35L88.22 336h175.56l40.11 101.65a16 16 0 0 0 15 10.35H336a16 16 0 0 0 15-21.65zM107.16 288L176 113.58 244.84 288z"></path>
  </symbol>
  <symbol id="paper-plane" viewBox="0 0 512 512">
    <path d="M440 6.5L24 246.4c-34.4 19.9-31.1 70.8 5.7 85.9L144 379.6V464c0 46.4 59.2 65.5 86.6 28.6l43.8-59.1 111.9 46.2c5.9 2.4 12.1 3.6 18.3 3.6 8.2 0 16.3-2.1 23.6-6.2 12.8-7.2 21.6-20 23.9-34.5l59.4-387.2c6.1-40.1-36.9-68.8-71.5-48.9zM192 464v-64.6l36.6 15.1L192 464zm212.6-28.7l-153.8-63.5L391 169.5c10.7-15.5-9.5-33.5-23.7-21.2L155.8 332.6 48 288 464 48l-59.4 387.3z"></path>
  </symbol>
  <symbol id="image" viewBox="0 0 512 512">
    <path d="M464 64H48C21.49 64 0 85.49 0 112v288c0 26.51 21.49 48 48 48h416c26.51 0 48-21.49 48-48V112c0-26.51-21.49-48-48-48zm-6 336H54a6 6 0 0 1-6-6V118a6 6 0 0 1 6-6h404a6 6 0 0 1 6 6v276a6 6 0 0 1-6 6zM128 152c-22.091 0-40 17.909-40 40s17.909 40 40 40 40-17.909 40-40-17.909-40-40-40zM96 352h320v-80l-87.515-87.515c-4.686-4.686-12.284-4.686-16.971 0L192 304l-39.515-39.515c-4.686-4.686-12.284-4.686-16.971 0L96 304v48z"></path>
  </symbol>
  <symbol id="stars" viewBox="0 0 512 512">
    <path d="M364.3 267.3L259.5 252l-46.9-95.2c-4.2-8.5-12.4-12.8-20.7-12.8-8.2 0-16.3 4.2-20.5 12.8L124.5 252 19.7 267.3C.9 270-6.7 293.2 7 306.5l75.9 74-18 104.6C62.3 500 74.2 512 87.5 512c3.5 0 7.2-.8 10.7-2.7l93.8-49.4 93.8 49.4c3.5 1.8 7.1 2.7 10.6 2.7 13.3 0 25.2-11.9 22.7-26.9l-17.9-104.6 75.9-74c13.6-13.3 6-36.5-12.8-39.2zm-96.7 78.9l-18.1 17.6 4.3 24.9 9.4 54.5-48.9-25.7-22.3-11.8-22.4 11.8-48.9 25.7 9.4-54.5 4.3-24.9-18.1-17.6-39.7-38.7 54.8-8 25-3.6 11.2-22.6 24.4-49.6 24.4 49.6 11.2 22.6 25 3.6 54.8 8-39.8 38.7zM336 160l26.7-53.3L416 80l-53.3-26.7L336 0l-26.7 53.3L256 80l53.3 26.7L336 160zm144 32l-16-32-16 32-32 16 32 16 16 32 16-32 32-16-32-16z"></path>
  </symbol>
  <symbol id="bullhorn" viewBox="0 0 576 512">
    <path d="M544 184.88V32.01C544 23.26 537.02 0 512.01 0H512c-7.12 0-14.19 2.38-19.98 7.02l-85.03 68.03C364.28 109.19 310.66 128 256 128H64c-35.35 0-64 28.65-64 64v96c0 35.35 28.65 64 64 64l-.48 32c0 39.77 9.26 77.35 25.56 110.94 5.19 10.69 16.52 17.06 28.4 17.06h106.28c26.05 0 41.69-29.84 25.9-50.56-16.4-21.52-26.15-48.36-26.15-77.44 0-11.11 1.62-21.79 4.41-32H256c54.66 0 108.28 18.81 150.98 52.95l85.03 68.03a32.023 32.023 0 0 0 19.98 7.02c24.92 0 32-22.78 32-32V295.13c19.05-11.09 32-31.49 32-55.12.01-23.64-12.94-44.04-31.99-55.13zM127.73 464c-10.76-25.45-16.21-52.31-16.21-80 0-14.22 1.72-25.34 2.6-32h64.91c-2.09 10.7-3.52 21.41-3.52 32 0 28.22 6.58 55.4 19.21 80h-66.99zM240 304H64c-8.82 0-16-7.18-16-16v-96c0-8.82 7.18-16 16-16h176v128zm256 110.7l-59.04-47.24c-42.8-34.22-94.79-55.37-148.96-61.45V173.99c54.17-6.08 106.16-27.23 148.97-61.46L496 65.3v349.4z"></path>
  </symbol>
  <symbol id="file-solid" viewBox="0 0 384 512">
    <path d="M224 136V0H24C10.7 0 0 10.7 0 24v464c0 13.3 10.7 24 24 24h336c13.3 0 24-10.7 24-24V160H248c-13.2 0-24-10.8-24-24zm160-14.1v6.1H256V0h6.1c6.4 0 12.5 2.5 17 7l97.9 98c4.5 4.5 7 10.6 7 16.9z"></path>
  </symbol>
  <symbol id="sign-out" viewBox="0 0 512 512">
    <path d="M96 64h84c6.6 0 12 5.4 12 12v24c0 6.6-5.4 12-12 12H96c-26.5 0-48 21.5-48 48v192c0 26.5 21.5 48 48 48h84c6.6 0 12 5.4 12 12v24c0 6.6-5.4 12-12 12H96c-53 0-96-43-96-96V160c0-53 43-96 96-96zm231.1 19.5l-19.6 19.6c-4.8 4.8-4.7 12.5.2 17.1L420.8 230H172c-6.6 0-12 5.4-12 12v28c0 6.6 5.4 12 12 12h248.8L307.7 391.7c-4.8 4.7-4.9 12.4-.2 17.1l19.6 19.6c4.7 4.7 12.3 4.7 17 0l164.4-164c4.7-4.7 4.7-12.3 0-17l-164.4-164c-4.7-4.6-12.3-4.6-17 .1z"></path>
  </symbol>
  <symbol id="ad" viewBox="0 0 512 512">
    <path d="M101.42 352h16.94c6.81 0 12.88-4.32 15.12-10.75l7.38-21.25h70.29l7.38 21.25A16 16 0 0 0 233.65 352h16.94c11.01 0 18.73-10.85 15.12-21.25L212 176.13A24.004 24.004 0 0 0 189.33 160h-26.66c-10.22 0-19.32 6.47-22.67 16.12L86.31 330.75C82.7 341.15 90.42 352 101.42 352zM176 218.78L194.48 272h-36.96L176 218.78zM352 352c9.93 0 19.4-2.02 28.02-5.68 2.94 3.41 7.13 5.68 11.98 5.68h16c8.84 0 16-7.16 16-16V176c0-8.84-7.16-16-16-16h-16c-8.84 0-16 7.16-16 16v36.42c-7.54-2.69-15.54-4.42-24-4.42-39.7 0-72 32.3-72 72s32.3 72 72 72zm0-96c13.23 0 24 10.77 24 24s-10.77 24-24 24-24-10.77-24-24 10.77-24 24-24zM464 64H48C21.5 64 0 85.5 0 112v288c0 26.5 21.5 48 48 48h416c26.5 0 48-21.5 48-48V112c0-26.5-21.5-48-48-48zm0 336H48V112h416v288z"></path>
  </symbol>
  <symbol id="bullseye-pointer" viewBox="0 0 496 512">
    <path d="M242.16 240.67L27.98 301.55c-15.17 4.31-16.95 25.1-2.73 31.92l68.47 32.89-89.17 89.17c-6.07 6.06-6.07 15.9 0 21.96l21.96 21.96c6.07 6.06 15.9 6.06 21.96 0l89.17-89.17 32.89 68.47c6.83 14.22 27.61 12.44 31.92-2.73l60.87-214.18c3.68-12.91-8.25-24.83-21.16-21.17zm27.36 117.03l-14.08 49.55C335.92 403.3 400 337.46 400 256c0-84.02-68-152-152-152-81.47 0-147.3 64.1-151.25 144.57l49.55-14.08C156.25 187.44 198.04 152 248 152c57.35 0 104 46.65 104 104 0 49.96-35.44 91.75-82.48 101.7zM248 8C111.03 8 0 119.03 0 256c0 7.3.47 14.49 1.09 21.63 3.46-1.97 7-3.87 10.99-5l36.24-10.3c-.07-2.12-.32-4.19-.32-6.33 0-110.28 89.72-200 200-200s200 89.72 200 200-89.72 200-200 200c-2.14 0-4.21-.25-6.33-.32l-10.3 36.24c-1.14 4.02-3.15 7.5-5.14 10.98 7.19.63 14.42 1.1 21.77 1.1 136.97 0 248-111.03 248-248S384.97 8 248 8z"></path>
  </symbol>
  <symbol id="sitemap" viewBox="0 0 640 512">
    <path d="M104 272h192v48h48v-48h192v48h48v-57.59c0-21.17-17.22-38.41-38.41-38.41H344v-64h40c17.67 0 32-14.33 32-32V32c0-17.67-14.33-32-32-32H256c-17.67 0-32 14.33-32 32v96c0 8.84 3.58 16.84 9.37 22.63S247.16 160 256 160h40v64H94.41C73.22 224 56 241.23 56 262.41V320h48v-48zm168-160V48h96v64h-96zm336 240h-96c-17.67 0-32 14.33-32 32v96c0 17.67 14.33 32 32 32h96c17.67 0 32-14.33 32-32v-96c0-17.67-14.33-32-32-32zm-16 112h-64v-64h64v64zM368 352h-96c-17.67 0-32 14.33-32 32v96c0 17.67 14.33 32 32 32h96c17.67 0 32-14.33 32-32v-96c0-17.67-14.33-32-32-32zm-16 112h-64v-64h64v64zM128 352H32c-17.67 0-32 14.33-32 32v96c0 17.67 14.33 32 32 32h96c17.67 0 32-14.33 32-32v-96c0-17.67-14.33-32-32-32zm-16 112H48v-64h64v64z"></path>
  </symbol>
  <symbol id="envelope-open-text" viewBox="0 0 512 512">
    <path d="M494.59 164.52c-1.52-1.26-13.86-11.2-30.59-24.66V96c0-26.51-21.49-48-48-48h-66.13C327.24 28.85 293.77 0 256 0c-37.65 0-70.9 28.63-93.85 48H96c-26.51 0-48 21.49-48 48v43.85c-16.81 13.52-29.15 23.46-30.48 24.56A48.002 48.002 0 0 0 0 201.48V464c0 26.51 21.49 48 48 48h416c26.51 0 48-21.49 48-48V201.51c0-14.31-6.38-27.88-17.41-36.99zM96 96h320v156.66c-36.26 29.32-78.69 63.67-86.59 69.95C311.25 337.12 279.6 368 256 368c-23.69 0-55.86-31.37-73.41-45.39-7.9-6.28-50.33-40.64-86.59-69.97V96zm368 362c0 3.31-2.69 6-6 6H54c-3.31 0-6-2.69-6-6V275.56c38.96 31.48 95.95 77.65 104.66 84.58C174.71 377.76 212.55 416 256 416c43.21 0 80.64-37.72 103.34-55.86 9-7.15 65.84-53.19 104.66-84.56V458zM176 192h160c8.84 0 16-7.16 16-16v-16c0-8.84-7.16-16-16-16H176c-8.84 0-16 7.16-16 16v16c0 8.84 7.16 16 16 16zm176 64v-16c0-8.84-7.16-16-16-16H176c-8.84 0-16 7.16-16 16v16c0 8.84 7.16 16 16 16h160c8.84 0 16-7.16 16-16z"></path>
  </symbol>
  <symbol id="ticket-alt" viewBox="0 0 576 512">
    <path d="M400 208v96H176v-96h224m24-48H152c-13.255 0-24 10.745-24 24v144c0 13.255 10.745 24 24 24h272c13.255 0 24-10.745 24-24V184c0-13.255-10.745-24-24-24zm144 56h8V112c0-26.51-21.49-48-48-48H48C21.49 64 0 85.49 0 112v104h8c22.091 0 40 17.909 40 40s-17.909 40-40 40H0v104c0 26.51 21.49 48 48 48h480c26.51 0 48-21.49 48-48V296h-8c-22.091 0-40-17.909-40-40s17.909-40 40-40zm-40-38.372c-28.47 14.59-48 44.243-48 78.372s19.53 63.782 48 78.372V400H48v-65.628c28.471-14.59 48-44.243 48-78.372s-19.529-63.782-48-78.372V112h480v65.628z"></path>
  </symbol>
  <symbol id="id-card" viewBox="0 0 576 512">
    <path d="M528 32H48C21.5 32 0 53.5 0 80v352c0 26.5 21.5 48 48 48h480c26.5 0 48-21.5 48-48V80c0-26.5-21.5-48-48-48zm0 400H303.2c.9-4.5.8 3.6.8-22.4 0-31.8-30.1-57.6-67.2-57.6-10.8 0-18.7 8-44.8 8-26.9 0-33.4-8-44.8-8-37.1 0-67.2 25.8-67.2 57.6 0 26-.2 17.9.8 22.4H48V144h480v288zm-168-80h112c4.4 0 8-3.6 8-8v-16c0-4.4-3.6-8-8-8H360c-4.4 0-8 3.6-8 8v16c0 4.4 3.6 8 8 8zm0-64h112c4.4 0 8-3.6 8-8v-16c0-4.4-3.6-8-8-8H360c-4.4 0-8 3.6-8 8v16c0 4.4 3.6 8 8 8zm0-64h112c4.4 0 8-3.6 8-8v-16c0-4.4-3.6-8-8-8H360c-4.4 0-8 3.6-8 8v16c0 4.4 3.6 8 8 8zm-168 96c35.3 0 64-28.7 64-64s-28.7-64-64-64-64 28.7-64 64 28.7 64 64 64z"></path>
  </symbol>
  <symbol id="inbox-in" viewBox="0 0 576 512">
    <path d="M395.5 185.5l-99 99c-4.7 4.7-12.3 4.7-17 0l-99-99c-7.6-7.6-2.2-20.5 8.5-20.5h67V12c0-6.6 5.4-12 12-12h40c6.6 0 12 5.4 12 12v153h67c10.7 0 16.1 12.9 8.5 20.5zM528 352H408l-32 64H200l-32-64H48v112h480V352zm48 2.2V464c0 26.5-21.5 48-48 48H48c-26.5 0-48-21.5-48-48V354.2c0-11.8 4.3-23.1 12.1-31.9l101.6-114.2c2.3-2.6 4.9-4.9 7.7-7 2.4-1.7 5.6-1.4 7.7.7l24.8 24.9c2.2 2.2 2.3 5.9.2 8.2L92.7 304h105l32 64h116.7l32-64h105L422 234.9c-2.1-2.4-2-5.9.2-8.2l24.6-25c2-2.1 5.3-2.4 7.7-.7 2.9 2.1 5.5 4.4 7.9 7.1L564 322.3c7.7 8.8 12 20.2 12 31.9z"></path>
  </symbol>
  <symbol id="barcode-read" viewBox="0 0 640 512">
    <path d="M248 128h-16c-4.4 0-8 3.6-8 8v240c0 4.4 3.6 8 8 8h16c4.4 0 8-3.6 8-8V136c0-4.4-3.6-8-8-8zm-64 0h-48c-4.4 0-8 3.6-8 8v240c0 4.4 3.6 8 8 8h48c4.4 0 8-3.6 8-8V136c0-4.4-3.6-8-8-8zm-40 336H48v-96c0-8.8-7.2-16-16-16H16c-8.8 0-16 7.2-16 16v128c0 8.8 7.2 16 16 16h128c8.8 0 16-7.2 16-16v-16c0-8.8-7.2-16-16-16zM16 160h16c8.8 0 16-7.2 16-16V48h96c8.8 0 16-7.2 16-16V16c0-8.8-7.2-16-16-16H16C7.2 0 0 7.2 0 16v128c0 8.8 7.2 16 16 16zm496 216V136c0-4.4-3.6-8-8-8h-48c-4.4 0-8 3.6-8 8v240c0 4.4 3.6 8 8 8h48c4.4 0 8-3.6 8-8zM312 128h-16c-4.4 0-8 3.6-8 8v240c0 4.4 3.6 8 8 8h16c4.4 0 8-3.6 8-8V136c0-4.4-3.6-8-8-8zm312 224h-16c-8.8 0-16 7.2-16 16v96h-96c-8.8 0-16 7.2-16 16v16c0 8.8 7.2 16 16 16h128c8.8 0 16-7.2 16-16V368c0-8.8-7.2-16-16-16zm0-352H496c-8.8 0-16 7.2-16 16v16c0 8.8 7.2 16 16 16h96v96c0 8.8 7.2 16 16 16h16c8.8 0 16-7.2 16-16V16c0-8.8-7.2-16-16-16zM408 128h-48c-4.4 0-8 3.6-8 8v240c0 4.4 3.6 8 8 8h48c4.4 0 8-3.6 8-8V136c0-4.4-3.6-8-8-8z"></path>
  </symbol>
  <symbol id="youtube" viewBox="0 0 576 512">
    <path d="M549.655 124.083c-6.281-23.65-24.787-42.276-48.284-48.597C458.781 64 288 64 288 64S117.22 64 74.629 75.486c-23.497 6.322-42.003 24.947-48.284 48.597-11.412 42.867-11.412 132.305-11.412 132.305s0 89.438 11.412 132.305c6.281 23.65 24.787 41.5 48.284 47.821C117.22 448 288 448 288 448s170.78 0 213.371-11.486c23.497-6.321 42.003-24.171 48.284-47.821 11.412-42.867 11.412-132.305 11.412-132.305s0-89.438-11.412-132.305zm-317.51 213.508V175.185l142.739 81.205-142.739 81.201z"></path>
  </symbol>
  <symbol id="vimeo" viewBox="0 0 448 512">
    <path d="M403.2 32H44.8C20.1 32 0 52.1 0 76.8v358.4C0 459.9 20.1 480 44.8 480h358.4c24.7 0 44.8-20.1 44.8-44.8V76.8c0-24.7-20.1-44.8-44.8-44.8zM377 180.8c-1.4 31.5-23.4 74.7-66 129.4-44 57.2-81.3 85.8-111.7 85.8-18.9 0-34.8-17.4-47.9-52.3-25.5-93.3-36.4-148-57.4-148-2.4 0-10.9 5.1-25.4 15.2l-15.2-19.6c37.3-32.8 72.9-69.2 95.2-71.2 25.2-2.4 40.7 14.8 46.5 51.7 20.7 131.2 29.9 151 67.6 91.6 13.5-21.4 20.8-37.7 21.8-48.9 3.5-33.2-25.9-30.9-45.8-22.4 15.9-52.1 46.3-77.4 91.2-76 33.3.9 49 22.5 47.1 64.7z"></path>
  </symbol>
  <symbol id="pencil" viewBox="0 0 512 512">
    <path d="M491.609 73.625l-53.861-53.839c-26.378-26.379-69.076-26.383-95.46-.001L24.91 335.089.329 484.085c-2.675 16.215 11.368 30.261 27.587 27.587l148.995-24.582 315.326-317.378c26.33-26.331 26.581-68.879-.628-96.087zM120.644 302l170.259-169.155 88.251 88.251L210 391.355V350h-48v-48h-41.356zM82.132 458.132l-28.263-28.263 12.14-73.587L84.409 338H126v48h48v41.59l-18.282 18.401-73.586 12.141zm378.985-319.533l-.051.051-.051.051-48.03 48.344-88.03-88.03 48.344-48.03.05-.05.05-.05c9.147-9.146 23.978-9.259 33.236-.001l53.854 53.854c9.878 9.877 9.939 24.549.628 33.861z"></path>
  </symbol>
  <symbol id="toolbox" viewBox="0 0 512 512">
    <path d="M502.6 214.6l-77.25-77.25C419.4 131.4 411.2 128 402.7 128H384V88C384 57.13 358.9 32 328 32h-144C153.1 32 128 57.13 128 88V128H109.3C100.8 128 92.63 131.4 86.63 137.4L9.373 214.6C3.371 220.6 0 228.8 0 237.3V416c0 35.35 28.65 64 64 64h384c35.35 0 64-28.65 64-64V237.3C512 228.8 508.6 220.6 502.6 214.6zM176 88c0-4.406 3.594-8 8-8h144c4.406 0 8 3.594 8 8V128h-160V88zM115.9 176h280.2L464 243.9V296h-88V279.1C376 266.7 365.3 256 352 256s-24 10.75-24 23.1V296h-144V279.1C184 266.7 173.3 256 160 256C146.7 256 136 266.7 136 279.1V296H48V243.9L115.9 176zM448 432H64c-8.837 0-16-7.163-16-16v-72h88v16C136 373.3 146.7 384 159.1 384C173.3 384 184 373.3 184 360V344h144v16C328 373.3 338.7 384 352 384s24-10.75 24-23.1V344h88V416C464 424.8 456.8 432 448 432z"></path>
  </symbol>
  <symbol id="box-dollar" viewBox="0 0 448 512">
    <path d="M439.8 145.4l-45.43-80.76C383 44.47 361.7 32 338.6 32H109.4c-23.12 0-44.45 12.47-55.78 32.62L8.219 145.4C2.83 154.1 0 165.8 0 176.8V416c0 35.35 28.65 64 64 64h320c35.35 0 64-28.65 64-64V176.8C448 165.8 445.2 154.1 439.8 145.4zM247 80h91.55c5.771 0 11.12 3.125 13.95 8.154l39.67 70.52h-145.2V80zM95.48 88.15C98.31 83.13 103.7 80 109.4 80h89.59v78.67H55.82L95.48 88.15zM400 416c0 8.822-7.178 16-16 16H64c-8.822 0-16-7.178-16-16V206.7h352V416zM216.1 358.6C210.8 357.7 203 354.9 196.1 352.4l-3.703-1.328C184.1 348.1 174.1 352.5 172 360.8c-2.953 8.328 1.406 17.47 9.734 20.42l3.547 1.266c7.045 2.543 14.91 5.148 22.75 6.783L208 400c0 8.844 7.167 16 16.01 16s15.99-7.156 15.99-16l.0104-10.39c19.35-3.846 33.11-15.41 36.19-33.22c6.281-36.3-27.65-46.02-47.86-51.8L223.6 303.2C201.1 296.9 202.5 293.6 203.3 289.1c1.328-7.703 14.8-9.766 27.64-7.703c4.922 .7656 10.36 2.469 15.52 4.25c8.281 2.828 17.47-1.547 20.34-9.906c2.891-8.344-1.547-17.45-9.906-20.34c-5.6-1.934-11.33-3.35-16.88-4.52V240c0-8.844-7.156-16-16-16s-16 7.156-16 16v10.07C188.5 253.9 174.9 265.7 171.8 283.6c-6.203 35.89 28.14 45.98 42.8 50.28l5.083 1.474c25.41 7.281 25.98 10.01 25.03 15.54C243.3 358.6 229.7 360.7 216.1 358.6z"></path>
  </symbol>
  <symbol id="input-numeric" viewBox="0 0 640 512">
    <path d="M576 64H63.1C28.65 64 0 92.65 0 128v256c0 35.35 28.65 64 63.1 64H576C611.3 448 640 419.3 640 384V128C640 92.65 611.3 64 576 64zM592 384c0 8.836-7.164 16-16 16H63.1c-8.836 0-16-7.164-16-16V128c0-8.838 7.164-16 16-16H576c8.836 0 16 7.162 16 16V384zM200 304h-16v-128c0-8.838-7.164-16-16-16H131.4C123.2 160 115.5 164.2 111.1 171.2C101.1 187.2 112.6 208 131.4 208H136v96h-16C106.7 304 96 314.7 96 328C96 341.3 106.7 352 120 352h80C213.3 352 224 341.3 224 328C224 314.7 213.3 304 200 304zM352 304H319.7l31.06-32.89c18.36-19.44 23.17-46.78 12.58-71.33C352.8 175.3 329.6 160 302.8 160C280.2 160 259 173.6 247.6 195.5L242.7 204.9C236.6 216.7 241.2 231.2 252.9 237.3c11.73 6.109 26.25 1.594 32.38-10.19l4.938-9.453C293.3 211.7 298.1 208 302.8 208c10.61 0 15.02 7.547 16.41 10.8c1.406 3.25 3.875 11.64-3.422 19.36L246.5 311.5C239.1 318.5 238.2 328.7 241.1 337.5C245.8 346.3 254.4 352 264 352H352c13.25 0 24-10.75 24-24S365.3 304 352 304z"></path>
  </symbol>
  <symbol id="input-text" viewBox="0 0 640 512">
    <path d="M213.5 172.2c-8.123-16.31-34.81-16.31-42.94 0l-71.1 144c-5.938 11.84-1.125 26.25 10.75 32.19c11.9 5.938 26.25 1.156 32.19-10.75l5.359-10.72h90.34l5.359 10.72c4.219 8.438 12.69 13.28 21.5 13.28c3.594 0 7.25-.8125 10.69-2.531c11.88-5.938 16.69-20.34 10.75-32.19L213.5 172.2zM170.8 278.1L192 236.6l21.17 42.34H170.8zM456 220C456 186.9 429.1 160 396 160H344C330.8 160 320 170.8 320 184v144c0 13.25 10.75 24 24 24h68c33.09 0 60-26.91 60-60c0-18.59-8.5-35.23-21.81-46.25C453.9 237.1 456 229.2 456 220zM368 208h28c6.625 0 12 5.391 12 12S402.6 232 396 232H368V208zM412 304H368V280h44c6.625 0 12 5.391 12 12C424 298.6 418.6 304 412 304zM576 64H63.1C28.65 64 0 92.65 0 128v256c0 35.35 28.65 64 63.1 64H576C611.3 448 640 419.3 640 384V128C640 92.65 611.3 64 576 64zM592 384c0 8.836-7.164 16-16 16H63.1c-8.836 0-16-7.164-16-16V128c0-8.838 7.164-16 16-16H576c8.836 0 16 7.162 16 16V384z"></path>
  </symbol>
</svg>
